  0
SECTION
  2
HEADER
  9
$ACADVER
  1
AC1009
  9
$FILLMODE
 70
0
  9
$EXTMIN
 10
-4.1910
 20
-4.4450
 30
0.0000
  9
$EXTMAX
 10
79.1210
 20
41.5798
 30
0.0000
  0
ENDSEC
  0
SECTION
  2
TABLES
  0
TABLE
  2
LTYPE
 70
1
  0
LTYPE
  2
CONTINUOUS
 70
64
  3
Solid line
 72
65
 73
0
 40
0
  0
ENDTAB
  0
TABLE
  2
LAYER
 70
255
  0
LAYER
  2
16
 70
64
 62
175
  6
CONTINUOUS
  0
LAYER
  2
17
 70
64
 62
82
  6
CONTINUOUS
  0
LAYER
  2
18
 70
64
 62
82
  6
CONTINUOUS
  0
LAYER
  2
20
 70
64
 62
7
  6
CONTINUOUS
  0
LAYER
  2
22
 70
64
 62
253
  6
CONTINUOUS
  0
LAYER
  2
42
 70
64
 62
175
  6
CONTINUOUS
  0
LAYER
  2
52
 70
64
 62
253
  6
CONTINUOUS
  0
ENDTAB
  0
ENDSEC
  0
SECTION
  2
BLOCKS
  0
BLOCK
  8
0
  2
RECT
 70
64
 10
0.0000
 20
0.0000
 30
0.0000
  3
RECT
  0
SOLID
  8
0
 10
-0.5000
 20
-0.5000
 30
0.0000
 11
0.5000
 21
-0.5000
 31
0.0000
 12
-0.5000
 22
0.5000
 32
0.0000
 13
0.5000
 23
0.5000
 33
0.0000
  0
ENDBLK
  8
0
  0
BLOCK
  8
0
  2
PIE
 70
64
 10
0.0000
 20
0.0000
 30
0.0000
  3
PIE
  0
CIRCLE
  8
0
 10
0.0000
 20
0.0000
 30
0.0000
 40
0.5000
  0
ENDBLK
  8
0
  0
BLOCK
  8
0
  2
OCTAGONP
 70
64
 10
0.0000
 20
0.0000
 30
0.0000
  3
OCTAGONP
  0
POLYLINE
  8
0
 66
1
 10
0.0000
 20
0.0000
 30
0.0000
 40
0.0000
 41
0.0000
 70
1
  0
VERTEX
  8
0
 10
-0.5000
 20
-0.2071
 30
0.0000
  0
VERTEX
  8
0
 10
-0.5000
 20
0.2071
 30
0.0000
  0
VERTEX
  8
0
 10
-0.2071
 20
0.5000
 30
0.0000
  0
VERTEX
  8
0
 10
0.2071
 20
0.5000
 30
0.0000
  0
VERTEX
  8
0
 10
0.5000
 20
0.2071
 30
0.0000
  0
VERTEX
  8
0
 10
0.5000
 20
-0.2071
 30
0.0000
  0
VERTEX
  8
0
 10
0.2071
 20
-0.5000
 30
0.0000
  0
VERTEX
  8
0
 10
-0.2071
 20
-0.5000
 30
0.0000
  0
SEQEND
  8
0
  0
ENDBLK
  8
0
  0
BLOCK
  8
0
  2
SQUAREP
 70
64
 10
0.0000
 20
0.0000
 30
0.0000
  3
SQUAREP
  0
SOLID
  8
0
 10
-0.5000
 20
-0.5000
 30
0.0000
 11
0.5000
 21
-0.5000
 31
0.0000
 12
-0.5000
 22
0.5000
 32
0.0000
 13
0.5000
 23
0.5000
 33
0.0000
  0
ENDBLK
  8
0
  0
BLOCK
  8
0
  2
ROUNDP
 70
64
 10
0.0000
 20
0.0000
 30
0.0000
  3
ROUNDP
  0
CIRCLE
  8
0
 10
0.0000
 20
0.0000
 30
0.0000
 40
0.5000
  0
ENDBLK
  8
0
  0
BLOCK
  8
0
  2
ANNULUSP
 70
64
 10
0.0000
 20
0.0000
 30
0.0000
  3
ANNULUSP
  0
CIRCLE
  8
0
 10
0.0000
 20
0.0000
 30
0.0000
 40
0.5000
  0
ENDBLK
  8
0
  0
BLOCK
  8
0
  2
THERMALP
 70
64
 10
0.0000
 20
0.0000
 30
0.0000
  3
THERMALP
  0
POLYLINE
  8
0
 66
1
 10
0.0000
 20
0.0000
 30
0.0000
 40
0.0000
 41
0.0000
 70
1
  0
VERTEX
  8
0
 10
-0.2379
 20
0.4000
 30
0.0000
  0
VERTEX
  8
0
 10
0.2379
 20
0.4000
 30
0.0000
 42
1.0000
  0
VERTEX
  8
0
 10
0.2379
 20
0.5000
 30
0.0000
  0
VERTEX
  8
0
 10
-0.2379
 20
0.5000
 30
0.0000
 42
1.0000
  0
SEQEND
  8
0
  0
POLYLINE
  8
0
 66
1
 10
0.0000
 20
0.0000
 30
0.0000
 40
0.0000
 41
0.0000
 70
1
  0
VERTEX
  8
0
 10
0.4000
 20
0.2379
 30
0.0000
  0
VERTEX
  8
0
 10
0.4000
 20
-0.2379
 30
0.0000
 42
1.0000
  0
VERTEX
  8
0
 10
0.5000
 20
-0.2379
 30
0.0000
  0
VERTEX
  8
0
 10
0.5000
 20
0.2379
 30
0.0000
 42
1.0000
  0
SEQEND
  8
0
  0
POLYLINE
  8
0
 66
1
 10
0.0000
 20
0.0000
 30
0.0000
 40
0.0000
 41
0.0000
 70
1
  0
VERTEX
  8
0
 10
0.2379
 20
-0.4000
 30
0.0000
  0
VERTEX
  8
0
 10
-0.2379
 20
-0.4000
 30
0.0000
 42
1.0000
  0
VERTEX
  8
0
 10
-0.2379
 20
-0.5000
 30
0.0000
  0
VERTEX
  8
0
 10
0.2379
 20
-0.5000
 30
0.0000
 42
1.0000
  0
SEQEND
  8
0
  0
POLYLINE
  8
0
 66
1
 10
0.0000
 20
0.0000
 30
0.0000
 40
0.0000
 41
0.0000
 70
1
  0
VERTEX
  8
0
 10
-0.4000
 20
-0.2379
 30
0.0000
  0
VERTEX
  8
0
 10
-0.4000
 20
0.2379
 30
0.0000
 42
1.0000
  0
VERTEX
  8
0
 10
-0.5000
 20
0.2379
 30
0.0000
  0
VERTEX
  8
0
 10
-0.5000
 20
-0.2379
 30
0.0000
 42
1.0000
  0
SEQEND
  8
0
  0
ENDBLK
  8
0
  0
BLOCK
  8
0
  2
OCTAGONV
 70
64
 10
0.0000
 20
0.0000
 30
0.0000
  3
OCTAGONV
  0
POLYLINE
  8
0
 66
1
 10
0.0000
 20
0.0000
 30
0.0000
 40
0.0000
 41
0.0000
 70
1
  0
VERTEX
  8
0
 10
-0.5000
 20
-0.2071
 30
0.0000
  0
VERTEX
  8
0
 10
-0.5000
 20
0.2071
 30
0.0000
  0
VERTEX
  8
0
 10
-0.2071
 20
0.5000
 30
0.0000
  0
VERTEX
  8
0
 10
0.2071
 20
0.5000
 30
0.0000
  0
VERTEX
  8
0
 10
0.5000
 20
0.2071
 30
0.0000
  0
VERTEX
  8
0
 10
0.5000
 20
-0.2071
 30
0.0000
  0
VERTEX
  8
0
 10
0.2071
 20
-0.5000
 30
0.0000
  0
VERTEX
  8
0
 10
-0.2071
 20
-0.5000
 30
0.0000
  0
SEQEND
  8
0
  0
ENDBLK
  8
0
  0
BLOCK
  8
0
  2
SQUAREV
 70
64
 10
0.0000
 20
0.0000
 30
0.0000
  3
SQUAREV
  0
SOLID
  8
0
 10
-0.5000
 20
-0.5000
 30
0.0000
 11
0.5000
 21
-0.5000
 31
0.0000
 12
-0.5000
 22
0.5000
 32
0.0000
 13
0.5000
 23
0.5000
 33
0.0000
  0
ENDBLK
  8
0
  0
BLOCK
  8
0
  2
ROUNDV
 70
64
 10
0.0000
 20
0.0000
 30
0.0000
  3
ROUNDV
  0
CIRCLE
  8
0
 10
0.0000
 20
0.0000
 30
0.0000
 40
0.5000
  0
ENDBLK
  8
0
  0
BLOCK
  8
0
  2
ANNULUSV
 70
64
 10
0.0000
 20
0.0000
 30
0.0000
  3
ANNULUSV
  0
CIRCLE
  8
0
 10
0.0000
 20
0.0000
 30
0.0000
 40
0.5000
  0
ENDBLK
  8
0
  0
BLOCK
  8
0
  2
THERMALV
 70
64
 10
0.0000
 20
0.0000
 30
0.0000
  3
THERMALV
  0
POLYLINE
  8
0
 66
1
 10
0.0000
 20
0.0000
 30
0.0000
 40
0.0000
 41
0.0000
 70
1
  0
VERTEX
  8
0
 10
-0.2379
 20
0.4000
 30
0.0000
  0
VERTEX
  8
0
 10
0.2379
 20
0.4000
 30
0.0000
 42
1.0000
  0
VERTEX
  8
0
 10
0.2379
 20
0.5000
 30
0.0000
  0
VERTEX
  8
0
 10
-0.2379
 20
0.5000
 30
0.0000
 42
1.0000
  0
SEQEND
  8
0
  0
POLYLINE
  8
0
 66
1
 10
0.0000
 20
0.0000
 30
0.0000
 40
0.0000
 41
0.0000
 70
1
  0
VERTEX
  8
0
 10
0.4000
 20
0.2379
 30
0.0000
  0
VERTEX
  8
0
 10
0.4000
 20
-0.2379
 30
0.0000
 42
1.0000
  0
VERTEX
  8
0
 10
0.5000
 20
-0.2379
 30
0.0000
  0
VERTEX
  8
0
 10
0.5000
 20
0.2379
 30
0.0000
 42
1.0000
  0
SEQEND
  8
0
  0
POLYLINE
  8
0
 66
1
 10
0.0000
 20
0.0000
 30
0.0000
 40
0.0000
 41
0.0000
 70
1
  0
VERTEX
  8
0
 10
0.2379
 20
-0.4000
 30
0.0000
  0
VERTEX
  8
0
 10
-0.2379
 20
-0.4000
 30
0.0000
 42
1.0000
  0
VERTEX
  8
0
 10
-0.2379
 20
-0.5000
 30
0.0000
  0
VERTEX
  8
0
 10
0.2379
 20
-0.5000
 30
0.0000
 42
1.0000
  0
SEQEND
  8
0
  0
POLYLINE
  8
0
 66
1
 10
0.0000
 20
0.0000
 30
0.0000
 40
0.0000
 41
0.0000
 70
1
  0
VERTEX
  8
0
 10
-0.4000
 20
-0.2379
 30
0.0000
  0
VERTEX
  8
0
 10
-0.4000
 20
0.2379
 30
0.0000
 42
1.0000
  0
VERTEX
  8
0
 10
-0.5000
 20
0.2379
 30
0.0000
  0
VERTEX
  8
0
 10
-0.5000
 20
-0.2379
 30
0.0000
 42
1.0000
  0
SEQEND
  8
0
  0
ENDBLK
  8
0
  0
BLOCK
  8
0
  2
LONGP100
 70
64
 10
0.0000
 20
0.0000
 30
0.0000
  3
LONGP100
  0
POLYLINE
  8
0
 66
1
 10
0.0000
 20
0.0000
 30
0.0000
 40
0.0000
 41
0.0000
 70
1
  0
VERTEX
  8
0
 10
-0.5000
 20
-0.5000
 30
0.0000
  0
VERTEX
  8
0
 10
0.5000
 20
-0.5000
 30
0.0000
 42
1.0000
  0
VERTEX
  8
0
 10
0.5000
 20
0.5000
 30
0.0000
  0
VERTEX
  8
0
 10
-0.5000
 20
0.5000
 30
0.0000
 42
1.0000
  0
SEQEND
  8
0
  0
ENDBLK
  8
0
  0
ENDSEC
  0
SECTION
  2
ENTITIES
  0
LINE
  8
20
 10
0.0000
 20
0.0000
 30
0.0000
 11
76.1800
 21
0.0000
 31
0.0000
  0
LINE
  8
20
 10
76.1800
 20
0.0000
 30
0.0000
 11
76.1800
 21
38.4050
 31
0.0000
  0
LINE
  8
20
 10
76.1800
 20
38.4050
 30
0.0000
 11
0.0000
 21
38.4050
 31
0.0000
  0
LINE
  8
20
 10
0.0000
 20
38.4050
 30
0.0000
 11
0.0000
 21
0.0000
 31
0.0000
  0
CIRCLE
  8
20
 10
1.9050
 20
36.1950
 30
0.0000
 40
0.1750
  0
CIRCLE
  8
20
 10
74.2950
 20
36.1950
 30
0.0000
 40
0.1750
  0
CIRCLE
  8
20
 10
74.2950
 20
1.9050
 30
0.0000
 40
0.1750
  0
CIRCLE
  8
20
 10
1.9050
 20
1.9050
 30
0.0000
 40
0.1750
  0
INSERT
  8
17
  2
ROUNDP
 10
59.0550
 20
28.5750
 30
0.0000
 41
2.5400
 42
2.5400
 43
1.0000
 50
270.0000
  0
INSERT
  8
17
  2
OCTAGONP
 10
59.0550
 20
23.4950
 30
0.0000
 41
2.5400
 42
2.5400
 43
1.0000
 50
270.0000
  0
INSERT
  8
17
  2
ROUNDP
 10
24.1300
 20
15.8750
 30
0.0000
 41
1.6002
 42
1.6002
 43
1.0000
 50
0.0000
  0
INSERT
  8
17
  2
OCTAGONP
 10
26.6700
 20
15.8750
 30
0.0000
 41
1.6002
 42
1.6002
 43
1.0000
 50
0.0000
  0
INSERT
  8
17
  2
ROUNDP
 10
26.6700
 20
5.0800
 30
0.0000
 41
1.6002
 42
1.6002
 43
1.0000
 50
90.0000
  0
INSERT
  8
17
  2
OCTAGONP
 10
26.6700
 20
7.6200
 30
0.0000
 41
1.6002
 42
1.6002
 43
1.0000
 50
90.0000
  0
INSERT
  8
17
  2
ROUNDP
 10
13.3350
 20
15.2400
 30
0.0000
 41
1.6764
 42
1.6764
 43
1.0000
 50
90.0000
  0
INSERT
  8
17
  2
ROUNDP
 10
13.3350
 20
5.0800
 30
0.0000
 41
1.6764
 42
1.6764
 43
1.0000
 50
90.0000
  0
INSERT
  8
17
  2
ROUNDP
 10
38.7350
 20
15.2400
 30
0.0000
 41
1.6764
 42
1.6764
 43
1.0000
 50
90.0000
  0
INSERT
  8
17
  2
ROUNDP
 10
38.7350
 20
5.0800
 30
0.0000
 41
1.6764
 42
1.6764
 43
1.0000
 50
90.0000
  0
INSERT
  8
17
  2
LONGP100
 10
20.3200
 20
7.6200
 30
0.0000
 41
1.5240
 42
1.5240
 43
1.0000
 50
180.0000
  0
INSERT
  8
17
  2
LONGP100
 10
20.3200
 20
10.1600
 30
0.0000
 41
1.5240
 42
1.5240
 43
1.0000
 50
180.0000
  0
INSERT
  8
17
  2
LONGP100
 10
20.3200
 20
12.7000
 30
0.0000
 41
1.5240
 42
1.5240
 43
1.0000
 50
180.0000
  0
INSERT
  8
17
  2
LONGP100
 10
45.8470
 20
5.4610
 30
0.0000
 41
1.9812
 42
1.9812
 43
1.0000
 50
0.0000
  0
INSERT
  8
17
  2
LONGP100
 10
45.8470
 20
17.3990
 30
0.0000
 41
1.9812
 42
1.9812
 43
1.0000
 50
0.0000
  0
INSERT
  8
17
  2
LONGP100
 10
58.0390
 20
17.3990
 30
0.0000
 41
1.9812
 42
1.9812
 43
1.0000
 50
0.0000
  0
INSERT
  8
17
  2
LONGP100
 10
43.8150
 20
11.4300
 30
0.0000
 41
1.9812
 42
1.9812
 43
1.0000
 50
0.0000
  0
INSERT
  8
17
  2
LONGP100
 10
58.0390
 20
5.4610
 30
0.0000
 41
1.9812
 42
1.9812
 43
1.0000
 50
0.0000
  0
INSERT
  8
17
  2
OCTAGONP
 10
46.9900
 20
30.4800
 30
0.0000
 41
1.3208
 42
1.3208
 43
1.0000
 50
0.0000
  0
INSERT
  8
17
  2
OCTAGONP
 10
49.5300
 20
30.4800
 30
0.0000
 41
1.3208
 42
1.3208
 43
1.0000
 50
0.0000
  0
INSERT
  8
17
  2
LONGP100
 10
33.0200
 20
10.7950
 30
0.0000
 41
1.3208
 42
1.3208
 43
1.0000
 50
270.0000
  0
INSERT
  8
17
  2
LONGP100
 10
35.5600
 20
10.7950
 30
0.0000
 41
1.3208
 42
1.3208
 43
1.0000
 50
270.0000
  0
INSERT
  8
17
  2
LONGP100
 10
30.4800
 20
10.7950
 30
0.0000
 41
1.3208
 42
1.3208
 43
1.0000
 50
270.0000
  0
INSERT
  8
17
  2
OCTAGONP
 10
38.1000
 20
31.7500
 30
0.0000
 41
1.3208
 42
1.3208
 43
1.0000
 50
270.0000
  0
INSERT
  8
17
  2
OCTAGONP
 10
38.1000
 20
24.1300
 30
0.0000
 41
1.3208
 42
1.3208
 43
1.0000
 50
270.0000
  0
INSERT
  8
17
  2
OCTAGONP
 10
29.8450
 20
22.2250
 30
0.0000
 41
1.3208
 42
1.3208
 43
1.0000
 50
270.0000
  0
INSERT
  8
17
  2
OCTAGONP
 10
29.8450
 20
14.6050
 30
0.0000
 41
1.3208
 42
1.3208
 43
1.0000
 50
270.0000
  0
INSERT
  8
17
  2
OCTAGONP
 10
44.4500
 20
31.7500
 30
0.0000
 41
1.3208
 42
1.3208
 43
1.0000
 50
270.0000
  0
INSERT
  8
17
  2
OCTAGONP
 10
44.4500
 20
24.1300
 30
0.0000
 41
1.3208
 42
1.3208
 43
1.0000
 50
270.0000
  0
INSERT
  8
17
  2
OCTAGONP
 10
12.0650
 20
31.7500
 30
0.0000
 41
1.3208
 42
1.3208
 43
1.0000
 50
270.0000
  0
INSERT
  8
17
  2
OCTAGONP
 10
12.0650
 20
24.1300
 30
0.0000
 41
1.3208
 42
1.3208
 43
1.0000
 50
270.0000
  0
INSERT
  8
17
  2
OCTAGONP
 10
16.5100
 20
31.7500
 30
0.0000
 41
1.3208
 42
1.3208
 43
1.0000
 50
270.0000
  0
INSERT
  8
17
  2
OCTAGONP
 10
16.5100
 20
24.1300
 30
0.0000
 41
1.3208
 42
1.3208
 43
1.0000
 50
270.0000
  0
INSERT
  8
17
  2
OCTAGONP
 10
21.5900
 20
31.7500
 30
0.0000
 41
1.3208
 42
1.3208
 43
1.0000
 50
270.0000
  0
INSERT
  8
17
  2
OCTAGONP
 10
21.5900
 20
24.1300
 30
0.0000
 41
1.3208
 42
1.3208
 43
1.0000
 50
270.0000
  0
INSERT
  8
17
  2
OCTAGONP
 10
33.0200
 20
20.9550
 30
0.0000
 41
1.3208
 42
1.3208
 43
1.0000
 50
0.0000
  0
INSERT
  8
17
  2
OCTAGONP
 10
40.6400
 20
20.9550
 30
0.0000
 41
1.3208
 42
1.3208
 43
1.0000
 50
0.0000
  0
INSERT
  8
17
  2
LONGP100
 10
41.2750
 20
29.2100
 30
0.0000
 41
1.4224
 42
1.4224
 43
1.0000
 50
180.0000
  0
INSERT
  8
17
  2
LONGP100
 10
41.2750
 20
26.6700
 30
0.0000
 41
1.4224
 42
1.4224
 43
1.0000
 50
180.0000
  0
INSERT
  8
17
  2
OCTAGONP
 10
46.9900
 20
22.2250
 30
0.0000
 41
1.3208
 42
1.3208
 43
1.0000
 50
0.0000
  0
INSERT
  8
17
  2
OCTAGONP
 10
49.5300
 20
22.2250
 30
0.0000
 41
1.3208
 42
1.3208
 43
1.0000
 50
0.0000
  0
INSERT
  8
17
  2
SQUAREP
 10
34.9250
 20
31.7500
 30
0.0000
 41
1.6764
 42
1.6764
 43
1.0000
 50
270.0000
  0
INSERT
  8
17
  2
ROUNDP
 10
32.3850
 20
31.7500
 30
0.0000
 41
1.6764
 42
1.6764
 43
1.0000
 50
270.0000
  0
INSERT
  8
17
  2
ROUNDP
 10
29.8450
 20
31.7500
 30
0.0000
 41
1.6764
 42
1.6764
 43
1.0000
 50
270.0000
  0
INSERT
  8
17
  2
ROUNDP
 10
27.3050
 20
31.7500
 30
0.0000
 41
1.6764
 42
1.6764
 43
1.0000
 50
270.0000
  0
INSERT
  8
17
  2
ROUNDP
 10
27.3050
 20
24.1300
 30
0.0000
 41
1.6764
 42
1.6764
 43
1.0000
 50
270.0000
  0
INSERT
  8
17
  2
ROUNDP
 10
29.8450
 20
24.1300
 30
0.0000
 41
1.6764
 42
1.6764
 43
1.0000
 50
270.0000
  0
INSERT
  8
17
  2
ROUNDP
 10
32.3850
 20
24.1300
 30
0.0000
 41
1.6764
 42
1.6764
 43
1.0000
 50
270.0000
  0
INSERT
  8
17
  2
ROUNDP
 10
34.9250
 20
24.1300
 30
0.0000
 41
1.6764
 42
1.6764
 43
1.0000
 50
270.0000
  0
INSERT
  8
17
  2
LONGP100
 10
69.2150
 20
5.7912
 30
0.0000
 41
1.9812
 42
1.9812
 43
1.0000
 50
180.0000
  0
INSERT
  8
17
  2
LONGP100
 10
69.2150
 20
10.7950
 30
0.0000
 41
1.9812
 42
1.9812
 43
1.0000
 50
180.0000
  0
INSERT
  8
17
  2
LONGP100
 10
69.2150
 20
15.7988
 30
0.0000
 41
1.9812
 42
1.9812
 43
1.0000
 50
180.0000
  0
INSERT
  8
17
  2
LONGP100
 10
5.7150
 20
31.6738
 30
0.0000
 41
1.9812
 42
1.9812
 43
1.0000
 50
0.0000
  0
INSERT
  8
17
  2
LONGP100
 10
5.7150
 20
26.6700
 30
0.0000
 41
1.9812
 42
1.9812
 43
1.0000
 50
0.0000
  0
INSERT
  8
17
  2
LONGP100
 10
5.7150
 20
21.6662
 30
0.0000
 41
1.9812
 42
1.9812
 43
1.0000
 50
0.0000
  0
INSERT
  8
17
  2
LONGP100
 10
69.2150
 20
21.6662
 30
0.0000
 41
1.9812
 42
1.9812
 43
1.0000
 50
180.0000
  0
INSERT
  8
17
  2
LONGP100
 10
69.2150
 20
26.6700
 30
0.0000
 41
1.9812
 42
1.9812
 43
1.0000
 50
180.0000
  0
INSERT
  8
17
  2
LONGP100
 10
69.2150
 20
31.6738
 30
0.0000
 41
1.9812
 42
1.9812
 43
1.0000
 50
180.0000
  0
INSERT
  8
17
  2
LONGP100
 10
5.7150
 20
8.9154
 30
0.0000
 41
1.9812
 42
1.9812
 43
1.0000
 50
180.0000
  0
INSERT
  8
17
  2
LONGP100
 10
5.7150
 20
13.9446
 30
0.0000
 41
1.9812
 42
1.9812
 43
1.0000
 50
180.0000
  0
POLYLINE
  8
16
 66
1
 10
0.0000
 20
0.0000
 30
0.0000
 40
0.0000
 41
0.0000
 70
1
  0
VERTEX
  8
16
 10
43.8150
 20
10.9220
 30
0.0000
  0
VERTEX
  8
16
 10
60.9600
 20
10.9220
 30
0.0000
 42
1.0000
  0
VERTEX
  8
16
 10
60.9600
 20
11.9380
 30
0.0000
  0
VERTEX
  8
16
 10
43.8150
 20
11.9380
 30
0.0000
 42
1.0000
  0
SEQEND
  8
0
  0
POLYLINE
  8
16
 66
1
 10
0.0000
 20
0.0000
 30
0.0000
 40
0.0000
 41
0.0000
 70
1
  0
VERTEX
  8
16
 10
61.3192
 20
11.0708
 30
0.0000
  0
VERTEX
  8
16
 10
65.7642
 20
15.5158
 30
0.0000
 42
1.0000
  0
VERTEX
  8
16
 10
65.0458
 20
16.2342
 30
0.0000
  0
VERTEX
  8
16
 10
60.6008
 20
11.7892
 30
0.0000
 42
1.0000
  0
SEQEND
  8
0
  0
POLYLINE
  8
16
 66
1
 10
0.0000
 20
0.0000
 30
0.0000
 40
0.0000
 41
0.0000
 70
1
  0
VERTEX
  8
16
 10
65.4050
 20
15.3670
 30
0.0000
  0
VERTEX
  8
16
 10
69.1388
 20
15.3670
 30
0.0000
 42
1.0000
  0
VERTEX
  8
16
 10
69.1388
 20
16.3830
 30
0.0000
  0
VERTEX
  8
16
 10
65.4050
 20
16.3830
 30
0.0000
 42
1.0000
  0
SEQEND
  8
0
  0
POLYLINE
  8
16
 66
1
 10
0.0000
 20
0.0000
 30
0.0000
 40
0.0000
 41
0.0000
 70
1
  0
VERTEX
  8
16
 10
68.7796
 20
15.5158
 30
0.0000
  0
VERTEX
  8
16
 10
68.8558
 20
15.4396
 30
0.0000
 42
1.0000
  0
VERTEX
  8
16
 10
69.5742
 20
16.1580
 30
0.0000
  0
VERTEX
  8
16
 10
69.4980
 20
16.2342
 30
0.0000
 42
1.0000
  0
SEQEND
  8
0
  0
POLYLINE
  8
16
 66
1
 10
0.0000
 20
0.0000
 30
0.0000
 40
0.0000
 41
0.0000
 70
1
  0
VERTEX
  8
16
 10
30.4800
 20
11.3030
 30
0.0000
  0
VERTEX
  8
16
 10
29.6675
 20
11.3030
 30
0.0000
 42
1.0000
  0
VERTEX
  8
16
 10
29.6675
 20
10.2870
 30
0.0000
  0
VERTEX
  8
16
 10
30.4800
 20
10.2870
 30
0.0000
 42
1.0000
  0
SEQEND
  8
0
  0
POLYLINE
  8
16
 66
1
 10
0.0000
 20
0.0000
 30
0.0000
 40
0.0000
 41
0.0000
 70
1
  0
VERTEX
  8
16
 10
26.7458
 20
9.6520
 30
0.0000
  0
VERTEX
  8
16
 10
29.0325
 20
9.6520
 30
0.0000
 42
1.0000
  0
VERTEX
  8
16
 10
29.0325
 20
10.6680
 30
0.0000
  0
VERTEX
  8
16
 10
26.7458
 20
10.6680
 30
0.0000
 42
1.0000
  0
SEQEND
  8
0
  0
POLYLINE
  8
16
 66
1
 10
0.0000
 20
0.0000
 30
0.0000
 40
0.0000
 41
0.0000
 70
1
  0
VERTEX
  8
16
 10
29.3918
 20
9.8008
 30
0.0000
  0
VERTEX
  8
16
 10
30.0268
 20
10.4358
 30
0.0000
 42
1.0000
  0
VERTEX
  8
16
 10
29.3083
 20
11.1542
 30
0.0000
  0
VERTEX
  8
16
 10
28.6733
 20
10.5192
 30
0.0000
 42
1.0000
  0
SEQEND
  8
0
  0
POLYLINE
  8
16
 66
1
 10
0.0000
 20
0.0000
 30
0.0000
 40
0.0000
 41
0.0000
 70
1
  0
VERTEX
  8
16
 10
27.0292
 20
9.7250
 30
0.0000
  0
VERTEX
  8
16
 10
27.1050
 20
9.8008
 30
0.0000
 42
1.0000
  0
VERTEX
  8
16
 10
26.3866
 20
10.5192
 30
0.0000
  0
VERTEX
  8
16
 10
26.3108
 20
10.4434
 30
0.0000
 42
1.0000
  0
SEQEND
  8
0
  0
POLYLINE
  8
16
 66
1
 10
0.0000
 20
0.0000
 30
0.0000
 40
0.0000
 41
0.0000
 70
1
  0
VERTEX
  8
16
 10
5.7150
 20
8.2804
 30
0.0000
  0
VERTEX
  8
16
 10
12.7254
 20
8.2804
 30
0.0000
 42
1.0000
  0
VERTEX
  8
16
 10
12.7254
 20
9.5504
 30
0.0000
  0
VERTEX
  8
16
 10
5.7150
 20
9.5504
 30
0.0000
 42
1.0000
  0
SEQEND
  8
0
  0
POLYLINE
  8
16
 66
1
 10
0.0000
 20
0.0000
 30
0.0000
 40
0.0000
 41
0.0000
 70
1
  0
VERTEX
  8
16
 10
15.2400
 20
20.3200
 30
0.0000
  0
VERTEX
  8
16
 10
15.2400
 20
12.0650
 30
0.0000
 42
1.0000
  0
VERTEX
  8
16
 10
16.5100
 20
12.0650
 30
0.0000
  0
VERTEX
  8
16
 10
16.5100
 20
20.3200
 30
0.0000
 42
1.0000
  0
SEQEND
  8
0
  0
POLYLINE
  8
16
 66
1
 10
0.0000
 20
0.0000
 30
0.0000
 40
0.0000
 41
0.0000
 70
1
  0
VERTEX
  8
16
 10
16.3240
 20
20.7690
 30
0.0000
  0
VERTEX
  8
16
 10
15.0540
 20
22.0390
 30
0.0000
 42
1.0000
  0
VERTEX
  8
16
 10
14.1560
 20
21.1410
 30
0.0000
  0
VERTEX
  8
16
 10
15.4260
 20
19.8710
 30
0.0000
 42
1.0000
  0
SEQEND
  8
0
  0
POLYLINE
  8
16
 66
1
 10
0.0000
 20
0.0000
 30
0.0000
 40
0.0000
 41
0.0000
 70
1
  0
VERTEX
  8
16
 10
15.0540
 20
22.0390
 30
0.0000
  0
VERTEX
  8
16
 10
14.4190
 20
22.6740
 30
0.0000
 42
1.0000
  0
VERTEX
  8
16
 10
13.5210
 20
21.7760
 30
0.0000
  0
VERTEX
  8
16
 10
14.1560
 20
21.1410
 30
0.0000
 42
1.0000
  0
SEQEND
  8
0
  0
POLYLINE
  8
16
 66
1
 10
0.0000
 20
0.0000
 30
0.0000
 40
0.0000
 41
0.0000
 70
1
  0
VERTEX
  8
16
 10
14.6050
 20
22.2250
 30
0.0000
  0
VERTEX
  8
16
 10
14.6050
 20
26.0350
 30
0.0000
 42
1.0000
  0
VERTEX
  8
16
 10
13.3350
 20
26.0350
 30
0.0000
  0
VERTEX
  8
16
 10
13.3350
 20
22.2250
 30
0.0000
 42
1.0000
  0
SEQEND
  8
0
  0
POLYLINE
  8
16
 66
1
 10
0.0000
 20
0.0000
 30
0.0000
 40
0.0000
 41
0.0000
 70
1
  0
VERTEX
  8
16
 10
14.4190
 20
25.5860
 30
0.0000
  0
VERTEX
  8
16
 10
16.3240
 20
27.4910
 30
0.0000
 42
1.0000
  0
VERTEX
  8
16
 10
15.4260
 20
28.3890
 30
0.0000
  0
VERTEX
  8
16
 10
13.5210
 20
26.4840
 30
0.0000
 42
1.0000
  0
SEQEND
  8
0
  0
POLYLINE
  8
16
 66
1
 10
0.0000
 20
0.0000
 30
0.0000
 40
0.0000
 41
0.0000
 70
1
  0
VERTEX
  8
16
 10
15.8750
 20
27.3050
 30
0.0000
  0
VERTEX
  8
16
 10
18.4150
 20
27.3050
 30
0.0000
 42
1.0000
  0
VERTEX
  8
16
 10
18.4150
 20
28.5750
 30
0.0000
  0
VERTEX
  8
16
 10
15.8750
 20
28.5750
 30
0.0000
 42
1.0000
  0
SEQEND
  8
0
  0
POLYLINE
  8
16
 66
1
 10
0.0000
 20
0.0000
 30
0.0000
 40
0.0000
 41
0.0000
 70
1
  0
VERTEX
  8
16
 10
18.8640
 20
27.4910
 30
0.0000
  0
VERTEX
  8
16
 10
19.4990
 20
28.1260
 30
0.0000
 42
1.0000
  0
VERTEX
  8
16
 10
18.6010
 20
29.0240
 30
0.0000
  0
VERTEX
  8
16
 10
17.9660
 20
28.3890
 30
0.0000
 42
1.0000
  0
SEQEND
  8
0
  0
POLYLINE
  8
16
 66
1
 10
0.0000
 20
0.0000
 30
0.0000
 40
0.0000
 41
0.0000
 70
1
  0
VERTEX
  8
16
 10
19.6850
 20
28.5750
 30
0.0000
  0
VERTEX
  8
16
 10
19.6850
 20
32.3850
 30
0.0000
 42
1.0000
  0
VERTEX
  8
16
 10
18.4150
 20
32.3850
 30
0.0000
  0
VERTEX
  8
16
 10
18.4150
 20
28.5750
 30
0.0000
 42
1.0000
  0
SEQEND
  8
0
  0
POLYLINE
  8
16
 66
1
 10
0.0000
 20
0.0000
 30
0.0000
 40
0.0000
 41
0.0000
 70
1
  0
VERTEX
  8
16
 10
19.4990
 20
31.9360
 30
0.0000
  0
VERTEX
  8
16
 10
20.7690
 20
33.2060
 30
0.0000
 42
1.0000
  0
VERTEX
  8
16
 10
19.8710
 20
34.1040
 30
0.0000
  0
VERTEX
  8
16
 10
18.6010
 20
32.8340
 30
0.0000
 42
1.0000
  0
SEQEND
  8
0
  0
POLYLINE
  8
16
 66
1
 10
0.0000
 20
0.0000
 30
0.0000
 40
0.0000
 41
0.0000
 70
1
  0
VERTEX
  8
16
 10
20.3200
 20
33.0200
 30
0.0000
  0
VERTEX
  8
16
 10
21.5900
 20
33.0200
 30
0.0000
 42
1.0000
  0
VERTEX
  8
16
 10
21.5900
 20
34.2900
 30
0.0000
  0
VERTEX
  8
16
 10
20.3200
 20
34.2900
 30
0.0000
 42
1.0000
  0
SEQEND
  8
0
  0
POLYLINE
  8
16
 66
1
 10
0.0000
 20
0.0000
 30
0.0000
 40
0.0000
 41
0.0000
 70
1
  0
VERTEX
  8
16
 10
21.5900
 20
33.0200
 30
0.0000
  0
VERTEX
  8
16
 10
27.3050
 20
33.0200
 30
0.0000
 42
1.0000
  0
VERTEX
  8
16
 10
27.3050
 20
34.2900
 30
0.0000
  0
VERTEX
  8
16
 10
21.5900
 20
34.2900
 30
0.0000
 42
1.0000
  0
SEQEND
  8
0
  0
POLYLINE
  8
16
 66
1
 10
0.0000
 20
0.0000
 30
0.0000
 40
0.0000
 41
0.0000
 70
1
  0
VERTEX
  8
16
 10
44.4932
 20
33.0200
 30
0.0000
  0
VERTEX
  8
16
 10
45.7078
 20
33.0200
 30
0.0000
 42
1.0000
  0
VERTEX
  8
16
 10
45.7078
 20
34.2900
 30
0.0000
  0
VERTEX
  8
16
 10
44.4932
 20
34.2900
 30
0.0000
 42
1.0000
  0
SEQEND
  8
0
  0
POLYLINE
  8
16
 66
1
 10
0.0000
 20
0.0000
 30
0.0000
 40
0.0000
 41
0.0000
 70
1
  0
VERTEX
  8
16
 10
41.5172
 20
33.0200
 30
0.0000
  0
VERTEX
  8
16
 10
44.4932
 20
33.0200
 30
0.0000
 42
1.0000
  0
VERTEX
  8
16
 10
44.4932
 20
34.2900
 30
0.0000
  0
VERTEX
  8
16
 10
41.5172
 20
34.2900
 30
0.0000
 42
1.0000
  0
SEQEND
  8
0
  0
POLYLINE
  8
16
 66
1
 10
0.0000
 20
0.0000
 30
0.0000
 40
0.0000
 41
0.0000
 70
1
  0
VERTEX
  8
16
 10
41.5172
 20
34.2900
 30
0.0000
  0
VERTEX
  8
16
 10
27.3050
 20
34.2900
 30
0.0000
 42
1.0000
  0
VERTEX
  8
16
 10
27.3050
 20
33.0200
 30
0.0000
  0
VERTEX
  8
16
 10
41.5172
 20
33.0200
 30
0.0000
 42
1.0000
  0
SEQEND
  8
0
  0
POLYLINE
  8
16
 66
1
 10
0.0000
 20
0.0000
 30
0.0000
 40
0.0000
 41
0.0000
 70
1
  0
VERTEX
  8
16
 10
45.7078
 20
33.0200
 30
0.0000
  0
VERTEX
  8
16
 10
50.1650
 20
33.0200
 30
0.0000
 42
1.0000
  0
VERTEX
  8
16
 10
50.1650
 20
34.2900
 30
0.0000
  0
VERTEX
  8
16
 10
45.7078
 20
34.2900
 30
0.0000
 42
1.0000
  0
SEQEND
  8
0
  0
POLYLINE
  8
16
 66
1
 10
0.0000
 20
0.0000
 30
0.0000
 40
0.0000
 41
0.0000
 70
1
  0
VERTEX
  8
16
 10
13.5210
 20
10.6090
 30
0.0000
  0
VERTEX
  8
16
 10
12.2764
 20
9.3644
 30
0.0000
 42
1.0000
  0
VERTEX
  8
16
 10
13.1744
 20
8.4664
 30
0.0000
  0
VERTEX
  8
16
 10
14.4190
 20
9.7110
 30
0.0000
 42
1.0000
  0
SEQEND
  8
0
  0
POLYLINE
  8
16
 66
1
 10
0.0000
 20
0.0000
 30
0.0000
 40
0.0000
 41
0.0000
 70
1
  0
VERTEX
  8
16
 10
14.4190
 20
9.7110
 30
0.0000
  0
VERTEX
  8
16
 10
16.3240
 20
11.6160
 30
0.0000
 42
1.0000
  0
VERTEX
  8
16
 10
15.4260
 20
12.5140
 30
0.0000
  0
VERTEX
  8
16
 10
13.5210
 20
10.6090
 30
0.0000
 42
1.0000
  0
SEQEND
  8
0
  0
POLYLINE
  8
16
 66
1
 10
0.0000
 20
0.0000
 30
0.0000
 40
0.0000
 41
0.0000
 70
1
  0
VERTEX
  8
16
 10
8.3571
 20
21.0820
 30
0.0000
  0
VERTEX
  8
16
 10
14.6050
 20
21.0820
 30
0.0000
 42
1.0000
  0
VERTEX
  8
16
 10
14.6050
 20
22.0980
 30
0.0000
  0
VERTEX
  8
16
 10
8.3571
 20
22.0980
 30
0.0000
 42
1.0000
  0
SEQEND
  8
0
  0
POLYLINE
  8
16
 66
1
 10
0.0000
 20
0.0000
 30
0.0000
 40
0.0000
 41
0.0000
 70
1
  0
VERTEX
  8
16
 10
8.3571
 20
22.0980
 30
0.0000
  0
VERTEX
  8
16
 10
5.7912
 20
22.0980
 30
0.0000
 42
1.0000
  0
VERTEX
  8
16
 10
5.7912
 20
21.0820
 30
0.0000
  0
VERTEX
  8
16
 10
8.3571
 20
21.0820
 30
0.0000
 42
1.0000
  0
SEQEND
  8
0
  0
POLYLINE
  8
16
 66
1
 10
0.0000
 20
0.0000
 30
0.0000
 40
0.0000
 41
0.0000
 70
1
  0
VERTEX
  8
16
 10
21.0820
 20
33.6550
 30
0.0000
  0
VERTEX
  8
16
 10
21.0820
 20
31.7500
 30
0.0000
 42
1.0000
  0
VERTEX
  8
16
 10
22.0980
 20
31.7500
 30
0.0000
  0
VERTEX
  8
16
 10
22.0980
 20
33.6550
 30
0.0000
 42
1.0000
  0
SEQEND
  8
0
  0
POLYLINE
  8
16
 66
1
 10
0.0000
 20
0.0000
 30
0.0000
 40
0.0000
 41
0.0000
 70
1
  0
VERTEX
  8
16
 10
26.7970
 20
33.6550
 30
0.0000
  0
VERTEX
  8
16
 10
26.7970
 20
31.7500
 30
0.0000
 42
1.0000
  0
VERTEX
  8
16
 10
27.8130
 20
31.7500
 30
0.0000
  0
VERTEX
  8
16
 10
27.8130
 20
33.6550
 30
0.0000
 42
1.0000
  0
SEQEND
  8
0
  0
POLYLINE
  8
16
 66
1
 10
0.0000
 20
0.0000
 30
0.0000
 40
0.0000
 41
0.0000
 70
1
  0
VERTEX
  8
16
 10
46.0792
 20
34.0020
 30
0.0000
  0
VERTEX
  8
16
 10
46.0670
 20
34.0142
 30
0.0000
 42
1.0000
  0
VERTEX
  8
16
 10
45.3486
 20
33.2958
 30
0.0000
  0
VERTEX
  8
16
 10
45.3608
 20
33.2836
 30
0.0000
 42
1.0000
  0
SEQEND
  8
0
  0
POLYLINE
  8
16
 66
1
 10
0.0000
 20
0.0000
 30
0.0000
 40
0.0000
 41
0.0000
 70
1
  0
VERTEX
  8
16
 10
13.9700
 20
9.5250
 30
0.0000
  0
VERTEX
  8
16
 10
20.3200
 20
9.5250
 30
0.0000
 42
1.0000
  0
VERTEX
  8
16
 10
20.3200
 20
10.7950
 30
0.0000
  0
VERTEX
  8
16
 10
13.9700
 20
10.7950
 30
0.0000
 42
1.0000
  0
SEQEND
  8
0
  0
POLYLINE
  8
16
 66
1
 10
0.0000
 20
0.0000
 30
0.0000
 40
0.0000
 41
0.0000
 70
1
  0
VERTEX
  8
16
 10
25.4000
 20
10.7950
 30
0.0000
  0
VERTEX
  8
16
 10
20.3200
 20
10.7950
 30
0.0000
 42
1.0000
  0
VERTEX
  8
16
 10
20.3200
 20
9.5250
 30
0.0000
  0
VERTEX
  8
16
 10
25.4000
 20
9.5250
 30
0.0000
 42
1.0000
  0
SEQEND
  8
0
  0
POLYLINE
  8
16
 66
1
 10
0.0000
 20
0.0000
 30
0.0000
 40
0.0000
 41
0.0000
 70
1
  0
VERTEX
  8
16
 10
24.9510
 20
9.7110
 30
0.0000
  0
VERTEX
  8
16
 10
26.2210
 20
8.4410
 30
0.0000
 42
1.0000
  0
VERTEX
  8
16
 10
27.1190
 20
9.3390
 30
0.0000
  0
VERTEX
  8
16
 10
25.8490
 20
10.6090
 30
0.0000
 42
1.0000
  0
SEQEND
  8
0
  0
POLYLINE
  8
16
 66
1
 10
0.0000
 20
0.0000
 30
0.0000
 40
0.0000
 41
0.0000
 70
1
  0
VERTEX
  8
16
 10
27.3050
 20
7.6200
 30
0.0000
  0
VERTEX
  8
16
 10
27.3050
 20
8.8900
 30
0.0000
 42
1.0000
  0
VERTEX
  8
16
 10
26.0350
 20
8.8900
 30
0.0000
  0
VERTEX
  8
16
 10
26.0350
 20
7.6200
 30
0.0000
 42
1.0000
  0
SEQEND
  8
0
  0
POLYLINE
  8
16
 66
1
 10
0.0000
 20
0.0000
 30
0.0000
 40
0.0000
 41
0.0000
 70
1
  0
VERTEX
  8
16
 10
27.3050
 20
11.4300
 30
0.0000
  0
VERTEX
  8
16
 10
27.3050
 20
15.8750
 30
0.0000
 42
1.0000
  0
VERTEX
  8
16
 10
26.0350
 20
15.8750
 30
0.0000
  0
VERTEX
  8
16
 10
26.0350
 20
11.4300
 30
0.0000
 42
1.0000
  0
SEQEND
  8
0
  0
POLYLINE
  8
16
 66
1
 10
0.0000
 20
0.0000
 30
0.0000
 40
0.0000
 41
0.0000
 70
1
  0
VERTEX
  8
16
 10
26.2210
 20
11.8790
 30
0.0000
  0
VERTEX
  8
16
 10
24.9510
 20
10.6090
 30
0.0000
 42
1.0000
  0
VERTEX
  8
16
 10
25.8490
 20
9.7110
 30
0.0000
  0
VERTEX
  8
16
 10
27.1190
 20
10.9810
 30
0.0000
 42
1.0000
  0
SEQEND
  8
0
  0
POLYLINE
  8
16
 66
1
 10
0.0000
 20
0.0000
 30
0.0000
 40
0.0000
 41
0.0000
 70
1
  0
VERTEX
  8
16
 10
26.0350
 20
15.8750
 30
0.0000
  0
VERTEX
  8
16
 10
26.0350
 20
7.6200
 30
0.0000
 42
1.0000
  0
VERTEX
  8
16
 10
27.3050
 20
7.6200
 30
0.0000
  0
VERTEX
  8
16
 10
27.3050
 20
15.8750
 30
0.0000
 42
1.0000
  0
SEQEND
  8
0
  0
POLYLINE
  8
16
 66
1
 10
0.0000
 20
0.0000
 30
0.0000
 40
0.0000
 41
0.0000
 70
1
  0
VERTEX
  8
16
 10
44.7374
 20
33.3245
 30
0.0000
  0
VERTEX
  8
16
 10
44.7805
 20
33.3676
 30
0.0000
 42
1.0000
  0
VERTEX
  8
16
 10
44.2058
 20
33.9424
 30
0.0000
  0
VERTEX
  8
16
 10
44.1626
 20
33.8992
 30
0.0000
 42
1.0000
  0
SEQEND
  8
0
  0
POLYLINE
  8
16
 66
1
 10
0.0000
 20
0.0000
 30
0.0000
 40
0.0000
 41
0.0000
 70
1
  0
VERTEX
  8
16
 10
58.2340
 20
16.6960
 30
0.0000
  0
VERTEX
  8
16
 10
58.4880
 20
16.9500
 30
0.0000
 42
1.0000
  0
VERTEX
  8
16
 10
57.5900
 20
17.8480
 30
0.0000
  0
VERTEX
  8
16
 10
57.3360
 20
17.5940
 30
0.0000
 42
1.0000
  0
SEQEND
  8
0
  0
POLYLINE
  8
16
 66
1
 10
0.0000
 20
0.0000
 30
0.0000
 40
0.0000
 41
0.0000
 70
1
  0
VERTEX
  8
16
 10
49.8128
 20
33.1266
 30
0.0000
  0
VERTEX
  8
16
 10
51.7178
 20
31.8566
 30
0.0000
 42
1.0000
  0
VERTEX
  8
16
 10
52.4222
 20
32.9134
 30
0.0000
  0
VERTEX
  8
16
 10
50.5172
 20
34.1834
 30
0.0000
 42
1.0000
  0
SEQEND
  8
0
  0
POLYLINE
  8
16
 66
1
 10
0.0000
 20
0.0000
 30
0.0000
 40
0.0000
 41
0.0000
 70
1
  0
VERTEX
  8
16
 10
51.4350
 20
30.7355
 30
0.0000
  0
VERTEX
  8
16
 10
51.4350
 20
25.1408
 30
0.0000
 42
1.0000
  0
VERTEX
  8
16
 10
52.7050
 20
25.1408
 30
0.0000
  0
VERTEX
  8
16
 10
52.7050
 20
30.7355
 30
0.0000
 42
1.0000
  0
SEQEND
  8
0
  0
POLYLINE
  8
16
 66
1
 10
0.0000
 20
0.0000
 30
0.0000
 40
0.0000
 41
0.0000
 70
1
  0
VERTEX
  8
16
 10
52.7050
 20
30.7355
 30
0.0000
  0
VERTEX
  8
16
 10
52.7050
 20
32.3850
 30
0.0000
 42
1.0000
  0
VERTEX
  8
16
 10
51.4350
 20
32.3850
 30
0.0000
  0
VERTEX
  8
16
 10
51.4350
 20
30.7355
 30
0.0000
 42
1.0000
  0
SEQEND
  8
0
  0
POLYLINE
  8
16
 66
1
 10
0.0000
 20
0.0000
 30
0.0000
 40
0.0000
 41
0.0000
 70
1
  0
VERTEX
  8
16
 10
52.7050
 20
22.1215
 30
0.0000
  0
VERTEX
  8
16
 10
52.7050
 20
25.1408
 30
0.0000
 42
1.0000
  0
VERTEX
  8
16
 10
51.4350
 20
25.1408
 30
0.0000
  0
VERTEX
  8
16
 10
51.4350
 20
22.1215
 30
0.0000
 42
1.0000
  0
SEQEND
  8
0
  0
POLYLINE
  8
16
 66
1
 10
0.0000
 20
0.0000
 30
0.0000
 40
0.0000
 41
0.0000
 70
1
  0
VERTEX
  8
16
 10
51.4350
 20
22.1215
 30
0.0000
  0
VERTEX
  8
16
 10
51.4350
 20
18.4150
 30
0.0000
 42
1.0000
  0
VERTEX
  8
16
 10
52.7050
 20
18.4150
 30
0.0000
  0
VERTEX
  8
16
 10
52.7050
 20
22.1215
 30
0.0000
 42
1.0000
  0
SEQEND
  8
0
  0
POLYLINE
  8
16
 66
1
 10
0.0000
 20
0.0000
 30
0.0000
 40
0.0000
 41
0.0000
 70
1
  0
VERTEX
  8
16
 10
51.7860
 20
17.8470
 30
0.0000
  0
VERTEX
  8
16
 10
53.0560
 20
17.2120
 30
0.0000
 42
1.0000
  0
VERTEX
  8
16
 10
53.6240
 20
18.3480
 30
0.0000
  0
VERTEX
  8
16
 10
52.3540
 20
18.9830
 30
0.0000
 42
1.0000
  0
SEQEND
  8
0
  0
POLYLINE
  8
16
 66
1
 10
0.0000
 20
0.0000
 30
0.0000
 40
0.0000
 41
0.0000
 70
1
  0
VERTEX
  8
16
 10
53.3400
 20
17.1450
 30
0.0000
  0
VERTEX
  8
16
 10
57.6580
 20
17.1450
 30
0.0000
 42
1.0000
  0
VERTEX
  8
16
 10
57.6580
 20
18.4150
 30
0.0000
  0
VERTEX
  8
16
 10
53.3400
 20
18.4150
 30
0.0000
 42
1.0000
  0
SEQEND
  8
0
  0
POLYLINE
  8
16
 66
1
 10
0.0000
 20
0.0000
 30
0.0000
 40
0.0000
 41
0.0000
 70
1
  0
VERTEX
  8
16
 10
57.2090
 20
17.3310
 30
0.0000
  0
VERTEX
  8
16
 10
57.5900
 20
16.9500
 30
0.0000
 42
1.0000
  0
VERTEX
  8
16
 10
58.4880
 20
17.8480
 30
0.0000
  0
VERTEX
  8
16
 10
58.1070
 20
18.2290
 30
0.0000
 42
1.0000
  0
SEQEND
  8
0
  0
POLYLINE
  8
16
 66
1
 10
0.0000
 20
0.0000
 30
0.0000
 40
0.0000
 41
0.0000
 70
1
  0
VERTEX
  8
16
 10
58.0390
 20
16.7640
 30
0.0000
  0
VERTEX
  8
16
 10
62.2300
 20
16.7640
 30
0.0000
 42
1.0000
  0
VERTEX
  8
16
 10
62.2300
 20
18.0340
 30
0.0000
  0
VERTEX
  8
16
 10
58.0390
 20
18.0340
 30
0.0000
 42
1.0000
  0
SEQEND
  8
0
  0
POLYLINE
  8
16
 66
1
 10
0.0000
 20
0.0000
 30
0.0000
 40
0.0000
 41
0.0000
 70
1
  0
VERTEX
  8
16
 10
64.2030
 20
16.9500
 30
0.0000
  0
VERTEX
  8
16
 10
68.3940
 20
21.1410
 30
0.0000
 42
1.0000
  0
VERTEX
  8
16
 10
67.4960
 20
22.0390
 30
0.0000
  0
VERTEX
  8
16
 10
63.3050
 20
17.8480
 30
0.0000
 42
1.0000
  0
SEQEND
  8
0
  0
POLYLINE
  8
16
 66
1
 10
0.0000
 20
0.0000
 30
0.0000
 40
0.0000
 41
0.0000
 70
1
  0
VERTEX
  8
16
 10
67.9450
 20
20.9550
 30
0.0000
  0
VERTEX
  8
16
 10
69.1388
 20
20.9550
 30
0.0000
 42
1.0000
  0
VERTEX
  8
16
 10
69.1388
 20
22.2250
 30
0.0000
  0
VERTEX
  8
16
 10
67.9450
 20
22.2250
 30
0.0000
 42
1.0000
  0
SEQEND
  8
0
  0
POLYLINE
  8
16
 66
1
 10
0.0000
 20
0.0000
 30
0.0000
 40
0.0000
 41
0.0000
 70
1
  0
VERTEX
  8
16
 10
69.5878
 20
21.1410
 30
0.0000
  0
VERTEX
  8
16
 10
69.6640
 20
21.2172
 30
0.0000
 42
1.0000
  0
VERTEX
  8
16
 10
68.7660
 20
22.1152
 30
0.0000
  0
VERTEX
  8
16
 10
68.6898
 20
22.0390
 30
0.0000
 42
1.0000
  0
SEQEND
  8
0
  0
POLYLINE
  8
16
 66
1
 10
0.0000
 20
0.0000
 30
0.0000
 40
0.0000
 41
0.0000
 70
1
  0
VERTEX
  8
16
 10
61.5950
 20
22.2250
 30
0.0000
  0
VERTEX
  8
16
 10
61.5950
 20
17.3990
 30
0.0000
 42
1.0000
  0
VERTEX
  8
16
 10
62.8650
 20
17.3990
 30
0.0000
  0
VERTEX
  8
16
 10
62.8650
 20
22.2250
 30
0.0000
 42
1.0000
  0
SEQEND
  8
0
  0
POLYLINE
  8
16
 66
1
 10
0.0000
 20
0.0000
 30
0.0000
 40
0.0000
 41
0.0000
 70
1
  0
VERTEX
  8
16
 10
41.6814
 20
29.2100
 30
0.0000
  0
VERTEX
  8
16
 10
41.6814
 20
33.4128
 30
0.0000
 42
1.0000
  0
VERTEX
  8
16
 10
40.8686
 20
33.4128
 30
0.0000
  0
VERTEX
  8
16
 10
40.8686
 20
29.2100
 30
0.0000
 42
1.0000
  0
SEQEND
  8
0
  0
POLYLINE
  8
16
 66
1
 10
0.0000
 20
0.0000
 30
0.0000
 40
0.0000
 41
0.0000
 70
1
  0
VERTEX
  8
16
 10
41.5624
 20
33.1254
 30
0.0000
  0
VERTEX
  8
16
 10
41.8046
 20
33.3676
 30
0.0000
 42
1.0000
  0
VERTEX
  8
16
 10
41.2298
 20
33.9424
 30
0.0000
  0
VERTEX
  8
16
 10
40.9876
 20
33.7002
 30
0.0000
 42
1.0000
  0
SEQEND
  8
0
  0
POLYLINE
  8
16
 66
1
 10
0.0000
 20
0.0000
 30
0.0000
 40
0.0000
 41
0.0000
 70
1
  0
VERTEX
  8
16
 10
51.4205
 20
25.9219
 30
0.0000
  0
VERTEX
  8
16
 10
51.6797
 20
25.0277
 30
0.0000
 42
1.0000
  0
VERTEX
  8
16
 10
52.4603
 20
25.2540
 30
0.0000
  0
VERTEX
  8
16
 10
52.2012
 20
26.1481
 30
0.0000
 42
1.0000
  0
SEQEND
  8
0
  0
POLYLINE
  8
16
 66
1
 10
0.0000
 20
0.0000
 30
0.0000
 40
0.0000
 41
0.0000
 70
1
  0
VERTEX
  8
16
 10
51.4032
 20
30.8276
 30
0.0000
  0
VERTEX
  8
16
 10
51.7826
 20
30.4482
 30
0.0000
 42
1.0000
  0
VERTEX
  8
16
 10
52.3574
 20
31.0229
 30
0.0000
  0
VERTEX
  8
16
 10
51.9779
 20
31.4024
 30
0.0000
 42
1.0000
  0
SEQEND
  8
0
  0
POLYLINE
  8
16
 66
1
 10
0.0000
 20
0.0000
 30
0.0000
 40
0.0000
 41
0.0000
 70
1
  0
VERTEX
  8
16
 10
59.0550
 20
22.8600
 30
0.0000
  0
VERTEX
  8
16
 10
60.3250
 20
22.8600
 30
0.0000
 42
1.0000
  0
VERTEX
  8
16
 10
60.3250
 20
24.1300
 30
0.0000
  0
VERTEX
  8
16
 10
59.0550
 20
24.1300
 30
0.0000
 42
1.0000
  0
SEQEND
  8
0
  0
POLYLINE
  8
16
 66
1
 10
0.0000
 20
0.0000
 30
0.0000
 40
0.0000
 41
0.0000
 70
1
  0
VERTEX
  8
16
 10
59.9728
 20
22.9666
 30
0.0000
  0
VERTEX
  8
16
 10
61.8778
 20
21.6966
 30
0.0000
 42
1.0000
  0
VERTEX
  8
16
 10
62.5822
 20
22.7534
 30
0.0000
  0
VERTEX
  8
16
 10
60.6772
 20
24.0234
 30
0.0000
 42
1.0000
  0
SEQEND
  8
0
  0
POLYLINE
  8
16
 66
1
 10
0.0000
 20
0.0000
 30
0.0000
 40
0.0000
 41
0.0000
 70
1
  0
VERTEX
  8
16
 10
62.2300
 20
16.7640
 30
0.0000
  0
VERTEX
  8
16
 10
63.7540
 20
16.7640
 30
0.0000
 42
1.0000
  0
VERTEX
  8
16
 10
63.7540
 20
18.0340
 30
0.0000
  0
VERTEX
  8
16
 10
62.2300
 20
18.0340
 30
0.0000
 42
1.0000
  0
SEQEND
  8
0
  0
POLYLINE
  8
16
 66
1
 10
0.0000
 20
0.0000
 30
0.0000
 40
0.0000
 41
0.0000
 70
1
  0
VERTEX
  8
16
 10
49.5300
 20
30.0736
 30
0.0000
  0
VERTEX
  8
16
 10
51.8145
 20
30.0736
 30
0.0000
 42
1.0000
  0
VERTEX
  8
16
 10
51.8145
 20
30.8864
 30
0.0000
  0
VERTEX
  8
16
 10
49.5300
 20
30.8864
 30
0.0000
 42
1.0000
  0
SEQEND
  8
0
  0
POLYLINE
  8
16
 66
1
 10
0.0000
 20
0.0000
 30
0.0000
 40
0.0000
 41
0.0000
 70
1
  0
VERTEX
  8
16
 10
52.1018
 20
30.1926
 30
0.0000
  0
VERTEX
  8
16
 10
52.3574
 20
30.4482
 30
0.0000
 42
1.0000
  0
VERTEX
  8
16
 10
51.7826
 20
31.0229
 30
0.0000
  0
VERTEX
  8
16
 10
51.5271
 20
30.7674
 30
0.0000
 42
1.0000
  0
SEQEND
  8
0
  0
POLYLINE
  8
16
 66
1
 10
0.0000
 20
0.0000
 30
0.0000
 40
0.0000
 41
0.0000
 70
1
  0
VERTEX
  8
16
 10
49.5300
 20
21.8186
 30
0.0000
  0
VERTEX
  8
16
 10
51.9665
 20
21.8186
 30
0.0000
 42
1.0000
  0
VERTEX
  8
16
 10
51.9665
 20
22.6314
 30
0.0000
  0
VERTEX
  8
16
 10
49.5300
 20
22.6314
 30
0.0000
 42
1.0000
  0
SEQEND
  8
0
  0
POLYLINE
  8
16
 66
1
 10
0.0000
 20
0.0000
 30
0.0000
 40
0.0000
 41
0.0000
 70
1
  0
VERTEX
  8
16
 10
51.6791
 20
21.9376
 30
0.0000
  0
VERTEX
  8
16
 10
51.7826
 20
21.8341
 30
0.0000
 42
1.0000
  0
VERTEX
  8
16
 10
52.3574
 20
22.4088
 30
0.0000
  0
VERTEX
  8
16
 10
52.2538
 20
22.5124
 30
0.0000
 42
1.0000
  0
SEQEND
  8
0
  0
POLYLINE
  8
16
 66
1
 10
0.0000
 20
0.0000
 30
0.0000
 40
0.0000
 41
0.0000
 70
1
  0
VERTEX
  8
16
 10
5.7121
 20
21.5646
 30
0.0000
  0
VERTEX
  8
16
 10
8.3542
 20
21.4884
 30
0.0000
 42
1.0000
  0
VERTEX
  8
16
 10
8.3601
 20
21.6916
 30
0.0000
  0
VERTEX
  8
16
 10
5.7179
 20
21.7678
 30
0.0000
 42
1.0000
  0
SEQEND
  8
0
  0
POLYLINE
  8
16
 66
1
 10
0.0000
 20
0.0000
 30
0.0000
 40
0.0000
 41
0.0000
 70
1
  0
VERTEX
  8
16
 10
34.9250
 20
31.3436
 30
0.0000
  0
VERTEX
  8
16
 10
38.1000
 20
31.3436
 30
0.0000
 42
1.0000
  0
VERTEX
  8
16
 10
38.1000
 20
32.1564
 30
0.0000
  0
VERTEX
  8
16
 10
34.9250
 20
32.1564
 30
0.0000
 42
1.0000
  0
SEQEND
  8
0
  0
POLYLINE
  8
16
 66
1
 10
0.0000
 20
0.0000
 30
0.0000
 40
0.0000
 41
0.0000
 70
1
  0
VERTEX
  8
16
 10
37.8126
 20
31.4626
 30
0.0000
  0
VERTEX
  8
16
 10
38.4476
 20
30.8276
 30
0.0000
 42
1.0000
  0
VERTEX
  8
16
 10
39.0224
 20
31.4024
 30
0.0000
  0
VERTEX
  8
16
 10
38.3874
 20
32.0374
 30
0.0000
 42
1.0000
  0
SEQEND
  8
0
  0
POLYLINE
  8
16
 66
1
 10
0.0000
 20
0.0000
 30
0.0000
 40
0.0000
 41
0.0000
 70
1
  0
VERTEX
  8
16
 10
38.3286
 20
31.1150
 30
0.0000
  0
VERTEX
  8
16
 10
38.3286
 20
27.3050
 30
0.0000
 42
1.0000
  0
VERTEX
  8
16
 10
39.1414
 20
27.3050
 30
0.0000
  0
VERTEX
  8
16
 10
39.1414
 20
31.1150
 30
0.0000
 42
1.0000
  0
SEQEND
  8
0
  0
POLYLINE
  8
16
 66
1
 10
0.0000
 20
0.0000
 30
0.0000
 40
0.0000
 41
0.0000
 70
1
  0
VERTEX
  8
16
 10
38.4476
 20
27.0176
 30
0.0000
  0
VERTEX
  8
16
 10
39.0826
 20
26.3826
 30
0.0000
 42
1.0000
  0
VERTEX
  8
16
 10
39.6574
 20
26.9574
 30
0.0000
  0
VERTEX
  8
16
 10
39.0224
 20
27.5924
 30
0.0000
 42
1.0000
  0
SEQEND
  8
0
  0
POLYLINE
  8
16
 66
1
 10
0.0000
 20
0.0000
 30
0.0000
 40
0.0000
 41
0.0000
 70
1
  0
VERTEX
  8
16
 10
39.3700
 20
26.2636
 30
0.0000
  0
VERTEX
  8
16
 10
41.2750
 20
26.2636
 30
0.0000
 42
1.0000
  0
VERTEX
  8
16
 10
41.2750
 20
27.0764
 30
0.0000
  0
VERTEX
  8
16
 10
39.3700
 20
27.0764
 30
0.0000
 42
1.0000
  0
SEQEND
  8
0
  0
POLYLINE
  8
16
 66
1
 10
0.0000
 20
0.0000
 30
0.0000
 40
0.0000
 41
0.0000
 70
1
  0
VERTEX
  8
16
 10
5.7272
 20
31.1659
 30
0.0000
  0
VERTEX
  8
16
 10
8.9022
 20
31.2421
 30
0.0000
 42
1.0000
  0
VERTEX
  8
16
 10
8.8778
 20
32.2579
 30
0.0000
  0
VERTEX
  8
16
 10
5.7028
 20
32.1817
 30
0.0000
 42
1.0000
  0
SEQEND
  8
0
  0
POLYLINE
  8
16
 66
1
 10
0.0000
 20
0.0000
 30
0.0000
 40
0.0000
 41
0.0000
 70
1
  0
VERTEX
  8
16
 10
8.5308
 20
31.3908
 30
0.0000
  0
VERTEX
  8
16
 10
9.8008
 20
30.1208
 30
0.0000
 42
1.0000
  0
VERTEX
  8
16
 10
10.5192
 20
30.8392
 30
0.0000
  0
VERTEX
  8
16
 10
9.2492
 20
32.1092
 30
0.0000
 42
1.0000
  0
SEQEND
  8
0
  0
POLYLINE
  8
16
 66
1
 10
0.0000
 20
0.0000
 30
0.0000
 40
0.0000
 41
0.0000
 70
1
  0
VERTEX
  8
16
 10
9.6520
 20
30.4800
 30
0.0000
  0
VERTEX
  8
16
 10
9.6520
 20
25.4000
 30
0.0000
 42
1.0000
  0
VERTEX
  8
16
 10
10.6680
 20
25.4000
 30
0.0000
  0
VERTEX
  8
16
 10
10.6680
 20
30.4800
 30
0.0000
 42
1.0000
  0
SEQEND
  8
0
  0
POLYLINE
  8
16
 66
1
 10
0.0000
 20
0.0000
 30
0.0000
 40
0.0000
 41
0.0000
 70
1
  0
VERTEX
  8
16
 10
9.8008
 20
25.0408
 30
0.0000
  0
VERTEX
  8
16
 10
11.0708
 20
23.7708
 30
0.0000
 42
1.0000
  0
VERTEX
  8
16
 10
11.7892
 20
24.4892
 30
0.0000
  0
VERTEX
  8
16
 10
10.5192
 20
25.7592
 30
0.0000
 42
1.0000
  0
SEQEND
  8
0
  0
POLYLINE
  8
16
 66
1
 10
0.0000
 20
0.0000
 30
0.0000
 40
0.0000
 41
0.0000
 70
1
  0
VERTEX
  8
16
 10
11.4300
 20
23.6220
 30
0.0000
  0
VERTEX
  8
16
 10
12.0650
 20
23.6220
 30
0.0000
 42
1.0000
  0
VERTEX
  8
16
 10
12.0650
 20
24.6380
 30
0.0000
  0
VERTEX
  8
16
 10
11.4300
 20
24.6380
 30
0.0000
 42
1.0000
  0
SEQEND
  8
0
  0
POLYLINE
  8
16
 66
1
 10
0.0000
 20
0.0000
 30
0.0000
 40
0.0000
 41
0.0000
 70
1
  0
VERTEX
  8
16
 10
29.8450
 20
14.0970
 30
0.0000
  0
VERTEX
  8
16
 10
31.1150
 20
14.0970
 30
0.0000
 42
1.0000
  0
VERTEX
  8
16
 10
31.1150
 20
15.1130
 30
0.0000
  0
VERTEX
  8
16
 10
29.8450
 20
15.1130
 30
0.0000
 42
1.0000
  0
SEQEND
  8
0
  0
POLYLINE
  8
16
 66
1
 10
0.0000
 20
0.0000
 30
0.0000
 40
0.0000
 41
0.0000
 70
1
  0
VERTEX
  8
16
 10
30.7558
 20
14.2458
 30
0.0000
  0
VERTEX
  8
16
 10
32.6608
 20
12.3408
 30
0.0000
 42
1.0000
  0
VERTEX
  8
16
 10
33.3792
 20
13.0592
 30
0.0000
  0
VERTEX
  8
16
 10
31.4742
 20
14.9642
 30
0.0000
 42
1.0000
  0
SEQEND
  8
0
  0
POLYLINE
  8
16
 66
1
 10
0.0000
 20
0.0000
 30
0.0000
 40
0.0000
 41
0.0000
 70
1
  0
VERTEX
  8
16
 10
32.5120
 20
12.7000
 30
0.0000
  0
VERTEX
  8
16
 10
32.5120
 20
10.7950
 30
0.0000
 42
1.0000
  0
VERTEX
  8
16
 10
33.5280
 20
10.7950
 30
0.0000
  0
VERTEX
  8
16
 10
33.5280
 20
12.7000
 30
0.0000
 42
1.0000
  0
SEQEND
  8
0
  0
POLYLINE
  8
16
 66
1
 10
0.0000
 20
0.0000
 30
0.0000
 40
0.0000
 41
0.0000
 70
1
  0
VERTEX
  8
16
 10
69.2150
 20
26.0350
 30
0.0000
  0
VERTEX
  8
16
 10
71.7550
 20
26.0350
 30
0.0000
 42
1.0000
  0
VERTEX
  8
16
 10
71.7550
 20
27.3050
 30
0.0000
  0
VERTEX
  8
16
 10
69.2150
 20
27.3050
 30
0.0000
 42
1.0000
  0
SEQEND
  8
0
  0
POLYLINE
  8
16
 66
1
 10
0.0000
 20
0.0000
 30
0.0000
 40
0.0000
 41
0.0000
 70
1
  0
VERTEX
  8
16
 10
71.3060
 20
26.2210
 30
0.0000
  0
VERTEX
  8
16
 10
71.9410
 20
25.5860
 30
0.0000
 42
1.0000
  0
VERTEX
  8
16
 10
72.8390
 20
26.4840
 30
0.0000
  0
VERTEX
  8
16
 10
72.2040
 20
27.1190
 30
0.0000
 42
1.0000
  0
SEQEND
  8
0
  0
POLYLINE
  8
16
 66
1
 10
0.0000
 20
0.0000
 30
0.0000
 40
0.0000
 41
0.0000
 70
1
  0
VERTEX
  8
16
 10
71.7550
 20
26.0350
 30
0.0000
  0
VERTEX
  8
16
 10
71.7550
 20
11.4300
 30
0.0000
 42
1.0000
  0
VERTEX
  8
16
 10
73.0250
 20
11.4300
 30
0.0000
  0
VERTEX
  8
16
 10
73.0250
 20
26.0350
 30
0.0000
 42
1.0000
  0
SEQEND
  8
0
  0
POLYLINE
  8
16
 66
1
 10
0.0000
 20
0.0000
 30
0.0000
 40
0.0000
 41
0.0000
 70
1
  0
VERTEX
  8
16
 10
71.9410
 20
11.8790
 30
0.0000
  0
VERTEX
  8
16
 10
71.3060
 20
11.2440
 30
0.0000
 42
1.0000
  0
VERTEX
  8
16
 10
72.2040
 20
10.3460
 30
0.0000
  0
VERTEX
  8
16
 10
72.8390
 20
10.9810
 30
0.0000
 42
1.0000
  0
SEQEND
  8
0
  0
POLYLINE
  8
16
 66
1
 10
0.0000
 20
0.0000
 30
0.0000
 40
0.0000
 41
0.0000
 70
1
  0
VERTEX
  8
16
 10
71.7550
 20
11.4300
 30
0.0000
  0
VERTEX
  8
16
 10
69.2150
 20
11.4300
 30
0.0000
 42
1.0000
  0
VERTEX
  8
16
 10
69.2150
 20
10.1600
 30
0.0000
  0
VERTEX
  8
16
 10
71.7550
 20
10.1600
 30
0.0000
 42
1.0000
  0
SEQEND
  8
0
  0
POLYLINE
  8
16
 66
1
 10
0.0000
 20
0.0000
 30
0.0000
 40
0.0000
 41
0.0000
 70
1
  0
VERTEX
  8
16
 10
5.7150
 20
13.3096
 30
0.0000
  0
VERTEX
  8
16
 10
9.4996
 20
13.3096
 30
0.0000
 42
1.0000
  0
VERTEX
  8
16
 10
9.4996
 20
14.5796
 30
0.0000
  0
VERTEX
  8
16
 10
5.7150
 20
14.5796
 30
0.0000
 42
1.0000
  0
SEQEND
  8
0
  0
POLYLINE
  8
16
 66
1
 10
0.0000
 20
0.0000
 30
0.0000
 40
0.0000
 41
0.0000
 70
1
  0
VERTEX
  8
16
 10
9.9486
 20
13.4956
 30
0.0000
  0
VERTEX
  8
16
 10
11.2440
 20
14.7910
 30
0.0000
 42
1.0000
  0
VERTEX
  8
16
 10
10.3460
 20
15.6890
 30
0.0000
  0
VERTEX
  8
16
 10
9.0506
 20
14.3936
 30
0.0000
 42
1.0000
  0
SEQEND
  8
0
  0
POLYLINE
  8
16
 66
1
 10
0.0000
 20
0.0000
 30
0.0000
 40
0.0000
 41
0.0000
 70
1
  0
VERTEX
  8
16
 10
10.7950
 20
14.6050
 30
0.0000
  0
VERTEX
  8
16
 10
13.3350
 20
14.6050
 30
0.0000
 42
1.0000
  0
VERTEX
  8
16
 10
13.3350
 20
15.8750
 30
0.0000
  0
VERTEX
  8
16
 10
10.7950
 20
15.8750
 30
0.0000
 42
1.0000
  0
SEQEND
  8
0
  0
POLYLINE
  8
16
 66
1
 10
0.0000
 20
0.0000
 30
0.0000
 40
0.0000
 41
0.0000
 70
1
  0
VERTEX
  8
16
 10
40.6400
 20
20.5486
 30
0.0000
  0
VERTEX
  8
16
 10
45.7200
 20
20.5486
 30
0.0000
 42
1.0000
  0
VERTEX
  8
16
 10
45.7200
 20
21.3614
 30
0.0000
  0
VERTEX
  8
16
 10
40.6400
 20
21.3614
 30
0.0000
 42
1.0000
  0
SEQEND
  8
0
  0
POLYLINE
  8
16
 66
1
 10
0.0000
 20
0.0000
 30
0.0000
 40
0.0000
 41
0.0000
 70
1
  0
VERTEX
  8
16
 10
46.0074
 20
20.6676
 30
0.0000
  0
VERTEX
  8
16
 10
47.2774
 20
21.9376
 30
0.0000
 42
1.0000
  0
VERTEX
  8
16
 10
46.7026
 20
22.5124
 30
0.0000
  0
VERTEX
  8
16
 10
45.4326
 20
21.2424
 30
0.0000
 42
1.0000
  0
SEQEND
  8
0
  0
POLYLINE
  8
16
 66
1
 10
0.0000
 20
0.0000
 30
0.0000
 40
0.0000
 41
0.0000
 70
1
  0
VERTEX
  8
16
 10
44.4500
 20
31.3436
 30
0.0000
  0
VERTEX
  8
16
 10
46.3550
 20
31.3436
 30
0.0000
 42
1.0000
  0
VERTEX
  8
16
 10
46.3550
 20
32.1564
 30
0.0000
  0
VERTEX
  8
16
 10
44.4500
 20
32.1564
 30
0.0000
 42
1.0000
  0
SEQEND
  8
0
  0
POLYLINE
  8
16
 66
1
 10
0.0000
 20
0.0000
 30
0.0000
 40
0.0000
 41
0.0000
 70
1
  0
VERTEX
  8
16
 10
46.0676
 20
31.4626
 30
0.0000
  0
VERTEX
  8
16
 10
46.7026
 20
30.8276
 30
0.0000
 42
1.0000
  0
VERTEX
  8
16
 10
47.2774
 20
31.4024
 30
0.0000
  0
VERTEX
  8
16
 10
46.6424
 20
32.0374
 30
0.0000
 42
1.0000
  0
SEQEND
  8
0
  0
POLYLINE
  8
16
 66
1
 10
0.0000
 20
0.0000
 30
0.0000
 40
0.0000
 41
0.0000
 70
1
  0
VERTEX
  8
16
 10
46.5836
 20
31.1150
 30
0.0000
  0
VERTEX
  8
16
 10
46.5836
 20
30.4800
 30
0.0000
 42
1.0000
  0
VERTEX
  8
16
 10
47.3964
 20
30.4800
 30
0.0000
  0
VERTEX
  8
16
 10
47.3964
 20
31.1150
 30
0.0000
 42
1.0000
  0
SEQEND
  8
0
  0
POLYLINE
  8
16
 66
1
 10
0.0000
 20
0.0000
 30
0.0000
 40
0.0000
 41
0.0000
 70
1
  0
VERTEX
  8
16
 10
38.7350
 20
14.8336
 30
0.0000
  0
VERTEX
  8
16
 10
44.4500
 20
14.8336
 30
0.0000
 42
1.0000
  0
VERTEX
  8
16
 10
44.4500
 20
15.6464
 30
0.0000
  0
VERTEX
  8
16
 10
38.7350
 20
15.6464
 30
0.0000
 42
1.0000
  0
SEQEND
  8
0
  0
POLYLINE
  8
16
 66
1
 10
0.0000
 20
0.0000
 30
0.0000
 40
0.0000
 41
0.0000
 70
1
  0
VERTEX
  8
16
 10
44.7946
 20
15.0246
 30
0.0000
  0
VERTEX
  8
16
 10
46.0646
 20
17.0566
 30
0.0000
 42
1.0000
  0
VERTEX
  8
16
 10
45.3754
 20
17.4874
 30
0.0000
  0
VERTEX
  8
16
 10
44.1054
 20
15.4554
 30
0.0000
 42
1.0000
  0
SEQEND
  8
0
  0
POLYLINE
  8
16
 66
1
 10
0.0000
 20
0.0000
 30
0.0000
 40
0.0000
 41
0.0000
 70
1
  0
VERTEX
  8
16
 10
46.0074
 20
16.9846
 30
0.0000
  0
VERTEX
  8
16
 10
46.1344
 20
17.1116
 30
0.0000
 42
1.0000
  0
VERTEX
  8
16
 10
45.5596
 20
17.6864
 30
0.0000
  0
VERTEX
  8
16
 10
45.4326
 20
17.5594
 30
0.0000
 42
1.0000
  0
SEQEND
  8
0
  0
POLYLINE
  8
16
 66
1
 10
0.0000
 20
0.0000
 30
0.0000
 40
0.0000
 41
0.0000
 70
1
  0
VERTEX
  8
16
 10
45.4406
 20
17.3990
 30
0.0000
  0
VERTEX
  8
16
 10
45.4406
 20
17.2720
 30
0.0000
 42
1.0000
  0
VERTEX
  8
16
 10
46.2534
 20
17.2720
 30
0.0000
  0
VERTEX
  8
16
 10
46.2534
 20
17.3990
 30
0.0000
 42
1.0000
  0
SEQEND
  8
0
  0
POLYLINE
  8
16
 66
1
 10
0.0000
 20
0.0000
 30
0.0000
 40
0.0000
 41
0.0000
 70
1
  0
VERTEX
  8
16
 10
35.9664
 20
10.7950
 30
0.0000
  0
VERTEX
  8
16
 10
35.9664
 20
13.9700
 30
0.0000
 42
1.0000
  0
VERTEX
  8
16
 10
35.1536
 20
13.9700
 30
0.0000
  0
VERTEX
  8
16
 10
35.1536
 20
10.7950
 30
0.0000
 42
1.0000
  0
SEQEND
  8
0
  0
POLYLINE
  8
16
 66
1
 10
0.0000
 20
0.0000
 30
0.0000
 40
0.0000
 41
0.0000
 70
1
  0
VERTEX
  8
16
 10
35.8474
 20
13.6826
 30
0.0000
  0
VERTEX
  8
16
 10
37.1174
 20
14.9526
 30
0.0000
 42
1.0000
  0
VERTEX
  8
16
 10
36.5426
 20
15.5274
 30
0.0000
  0
VERTEX
  8
16
 10
35.2726
 20
14.2574
 30
0.0000
 42
1.0000
  0
SEQEND
  8
0
  0
POLYLINE
  8
16
 66
1
 10
0.0000
 20
0.0000
 30
0.0000
 40
0.0000
 41
0.0000
 70
1
  0
VERTEX
  8
16
 10
36.8300
 20
14.8336
 30
0.0000
  0
VERTEX
  8
16
 10
38.7350
 20
14.8336
 30
0.0000
 42
1.0000
  0
VERTEX
  8
16
 10
38.7350
 20
15.6464
 30
0.0000
  0
VERTEX
  8
16
 10
36.8300
 20
15.6464
 30
0.0000
 42
1.0000
  0
SEQEND
  8
0
  0
POLYLINE
  8
16
 66
1
 10
0.0000
 20
0.0000
 30
0.0000
 40
0.0000
 41
0.0000
 70
1
  0
VERTEX
  8
16
 10
12.0650
 20
31.3436
 30
0.0000
  0
VERTEX
  8
16
 10
16.5100
 20
31.3436
 30
0.0000
 42
1.0000
  0
VERTEX
  8
16
 10
16.5100
 20
32.1564
 30
0.0000
  0
VERTEX
  8
16
 10
12.0650
 20
32.1564
 30
0.0000
 42
1.0000
  0
SEQEND
  8
0
  0
POLYLINE
  8
16
 66
1
 10
0.0000
 20
0.0000
 30
0.0000
 40
0.0000
 41
0.0000
 70
1
  0
VERTEX
  8
16
 10
16.5100
 20
23.7236
 30
0.0000
  0
VERTEX
  8
16
 10
21.5900
 20
23.7236
 30
0.0000
 42
1.0000
  0
VERTEX
  8
16
 10
21.5900
 20
24.5364
 30
0.0000
  0
VERTEX
  8
16
 10
16.5100
 20
24.5364
 30
0.0000
 42
1.0000
  0
SEQEND
  8
0
  0
POLYLINE
  8
16
 66
1
 10
0.0000
 20
0.0000
 30
0.0000
 40
0.0000
 41
0.0000
 70
1
  0
VERTEX
  8
16
 10
21.8774
 20
23.8426
 30
0.0000
  0
VERTEX
  8
16
 10
23.7824
 20
25.7476
 30
0.0000
 42
1.0000
  0
VERTEX
  8
16
 10
23.2076
 20
26.3224
 30
0.0000
  0
VERTEX
  8
16
 10
21.3026
 20
24.4174
 30
0.0000
 42
1.0000
  0
SEQEND
  8
0
  0
POLYLINE
  8
16
 66
1
 10
0.0000
 20
0.0000
 30
0.0000
 40
0.0000
 41
0.0000
 70
1
  0
VERTEX
  8
16
 10
23.4950
 20
25.6286
 30
0.0000
  0
VERTEX
  8
16
 10
31.1150
 20
25.6286
 30
0.0000
 42
1.0000
  0
VERTEX
  8
16
 10
31.1150
 20
26.4414
 30
0.0000
  0
VERTEX
  8
16
 10
23.4950
 20
26.4414
 30
0.0000
 42
1.0000
  0
SEQEND
  8
0
  0
POLYLINE
  8
16
 66
1
 10
0.0000
 20
0.0000
 30
0.0000
 40
0.0000
 41
0.0000
 70
1
  0
VERTEX
  8
16
 10
30.8276
 20
25.7476
 30
0.0000
  0
VERTEX
  8
16
 10
32.0976
 20
24.4776
 30
0.0000
 42
1.0000
  0
VERTEX
  8
16
 10
32.6724
 20
25.0524
 30
0.0000
  0
VERTEX
  8
16
 10
31.4024
 20
26.3224
 30
0.0000
 42
1.0000
  0
SEQEND
  8
0
  0
POLYLINE
  8
16
 66
1
 10
0.0000
 20
0.0000
 30
0.0000
 40
0.0000
 41
0.0000
 70
1
  0
VERTEX
  8
16
 10
31.9786
 20
24.7650
 30
0.0000
  0
VERTEX
  8
16
 10
31.9786
 20
24.1300
 30
0.0000
 42
1.0000
  0
VERTEX
  8
16
 10
32.7914
 20
24.1300
 30
0.0000
  0
VERTEX
  8
16
 10
32.7914
 20
24.7650
 30
0.0000
 42
1.0000
  0
SEQEND
  8
0
  0
POLYLINE
  8
16
 66
1
 10
0.0000
 20
0.0000
 30
0.0000
 40
0.0000
 41
0.0000
 70
1
  0
VERTEX
  8
16
 10
29.4386
 20
24.1300
 30
0.0000
  0
VERTEX
  8
16
 10
29.4386
 20
22.2250
 30
0.0000
 42
1.0000
  0
VERTEX
  8
16
 10
30.2514
 20
22.2250
 30
0.0000
  0
VERTEX
  8
16
 10
30.2514
 20
24.1300
 30
0.0000
 42
1.0000
  0
SEQEND
  8
0
  0
POLYLINE
  8
16
 66
1
 10
0.0000
 20
0.0000
 30
0.0000
 40
0.0000
 41
0.0000
 70
1
  0
VERTEX
  8
16
 10
29.5576
 20
21.9376
 30
0.0000
  0
VERTEX
  8
16
 10
30.8276
 20
20.6676
 30
0.0000
 42
1.0000
  0
VERTEX
  8
16
 10
31.4024
 20
21.2424
 30
0.0000
  0
VERTEX
  8
16
 10
30.1324
 20
22.5124
 30
0.0000
 42
1.0000
  0
SEQEND
  8
0
  0
POLYLINE
  8
16
 66
1
 10
0.0000
 20
0.0000
 30
0.0000
 40
0.0000
 41
0.0000
 70
1
  0
VERTEX
  8
16
 10
31.1150
 20
20.5486
 30
0.0000
  0
VERTEX
  8
16
 10
33.0200
 20
20.5486
 30
0.0000
 42
1.0000
  0
VERTEX
  8
16
 10
33.0200
 20
21.3614
 30
0.0000
  0
VERTEX
  8
16
 10
31.1150
 20
21.3614
 30
0.0000
 42
1.0000
  0
SEQEND
  8
0
  0
POLYLINE
  8
16
 66
1
 10
0.0000
 20
0.0000
 30
0.0000
 40
0.0000
 41
0.0000
 70
1
  0
VERTEX
  8
16
 10
36.7451
 20
24.5364
 30
0.0000
  0
VERTEX
  8
16
 10
34.9250
 20
24.5364
 30
0.0000
 42
1.0000
  0
VERTEX
  8
16
 10
34.9250
 20
23.7236
 30
0.0000
  0
VERTEX
  8
16
 10
36.7451
 20
23.7236
 30
0.0000
 42
1.0000
  0
SEQEND
  8
0
  0
POLYLINE
  8
16
 66
1
 10
0.0000
 20
0.0000
 30
0.0000
 40
0.0000
 41
0.0000
 70
1
  0
VERTEX
  8
16
 10
38.1000
 20
24.5364
 30
0.0000
  0
VERTEX
  8
16
 10
36.7451
 20
24.5364
 30
0.0000
 42
1.0000
  0
VERTEX
  8
16
 10
36.7451
 20
23.7236
 30
0.0000
  0
VERTEX
  8
16
 10
38.1000
 20
23.7236
 30
0.0000
 42
1.0000
  0
SEQEND
  8
0
  0
POLYLINE
  8
16
 66
1
 10
0.0000
 20
0.0000
 30
0.0000
 40
0.0000
 41
0.0000
 70
1
  0
VERTEX
  8
16
 10
20.3200
 20
12.2936
 30
0.0000
  0
VERTEX
  8
16
 10
22.8600
 20
12.2936
 30
0.0000
 42
1.0000
  0
VERTEX
  8
16
 10
22.8600
 20
13.1064
 30
0.0000
  0
VERTEX
  8
16
 10
20.3200
 20
13.1064
 30
0.0000
 42
1.0000
  0
SEQEND
  8
0
  0
POLYLINE
  8
16
 66
1
 10
0.0000
 20
0.0000
 30
0.0000
 40
0.0000
 41
0.0000
 70
1
  0
VERTEX
  8
16
 10
23.1474
 20
12.4126
 30
0.0000
  0
VERTEX
  8
16
 10
24.4174
 20
13.6826
 30
0.0000
 42
1.0000
  0
VERTEX
  8
16
 10
23.8426
 20
14.2574
 30
0.0000
  0
VERTEX
  8
16
 10
22.5726
 20
12.9874
 30
0.0000
 42
1.0000
  0
SEQEND
  8
0
  0
POLYLINE
  8
16
 66
1
 10
0.0000
 20
0.0000
 30
0.0000
 40
0.0000
 41
0.0000
 70
1
  0
VERTEX
  8
16
 10
24.5364
 20
13.9700
 30
0.0000
  0
VERTEX
  8
16
 10
24.5364
 20
15.8750
 30
0.0000
 42
1.0000
  0
VERTEX
  8
16
 10
23.7236
 20
15.8750
 30
0.0000
  0
VERTEX
  8
16
 10
23.7236
 20
13.9700
 30
0.0000
 42
1.0000
  0
SEQEND
  8
0
  0
POLYLINE
  8
16
 66
1
 10
0.0000
 20
0.0000
 30
0.0000
 40
0.0000
 41
0.0000
 70
1
  0
VERTEX
  8
16
 10
24.5364
 20
15.8750
 30
0.0000
  0
VERTEX
  8
16
 10
24.5364
 20
17.1450
 30
0.0000
 42
1.0000
  0
VERTEX
  8
16
 10
23.7236
 20
17.1450
 30
0.0000
  0
VERTEX
  8
16
 10
23.7236
 20
15.8750
 30
0.0000
 42
1.0000
  0
SEQEND
  8
0
  0
POLYLINE
  8
16
 66
1
 10
0.0000
 20
0.0000
 30
0.0000
 40
0.0000
 41
0.0000
 70
1
  0
VERTEX
  8
16
 10
26.0350
 20
18.6436
 30
0.0000
  0
VERTEX
  8
16
 10
34.2900
 20
18.6436
 30
0.0000
 42
1.0000
  0
VERTEX
  8
16
 10
34.2900
 20
19.4564
 30
0.0000
  0
VERTEX
  8
16
 10
26.0350
 20
19.4564
 30
0.0000
 42
1.0000
  0
SEQEND
  8
0
  0
POLYLINE
  8
16
 66
1
 10
0.0000
 20
0.0000
 30
0.0000
 40
0.0000
 41
0.0000
 70
1
  0
VERTEX
  8
16
 10
34.5774
 20
18.7626
 30
0.0000
  0
VERTEX
  8
16
 10
37.1174
 20
21.3026
 30
0.0000
 42
1.0000
  0
VERTEX
  8
16
 10
36.5426
 20
21.8774
 30
0.0000
  0
VERTEX
  8
16
 10
34.0026
 20
19.3374
 30
0.0000
 42
1.0000
  0
SEQEND
  8
0
  0
POLYLINE
  8
16
 66
1
 10
0.0000
 20
0.0000
 30
0.0000
 40
0.0000
 41
0.0000
 70
1
  0
VERTEX
  8
16
 10
37.2364
 20
21.5900
 30
0.0000
  0
VERTEX
  8
16
 10
37.2364
 20
24.0451
 30
0.0000
 42
1.0000
  0
VERTEX
  8
16
 10
36.4236
 20
24.0451
 30
0.0000
  0
VERTEX
  8
16
 10
36.4236
 20
21.5900
 30
0.0000
 42
1.0000
  0
SEQEND
  8
0
  0
POLYLINE
  8
16
 66
1
 10
0.0000
 20
0.0000
 30
0.0000
 40
0.0000
 41
0.0000
 70
1
  0
VERTEX
  8
16
 10
37.1174
 20
24.3325
 30
0.0000
  0
VERTEX
  8
16
 10
37.0325
 20
24.4174
 30
0.0000
 42
1.0000
  0
VERTEX
  8
16
 10
36.4578
 20
23.8426
 30
0.0000
  0
VERTEX
  8
16
 10
36.5426
 20
23.7578
 30
0.0000
 42
1.0000
  0
SEQEND
  8
0
  0
POLYLINE
  8
16
 66
1
 10
0.0000
 20
0.0000
 30
0.0000
 40
0.0000
 41
0.0000
 70
1
  0
VERTEX
  8
16
 10
24.4174
 20
16.8576
 30
0.0000
  0
VERTEX
  8
16
 10
26.3224
 20
18.7626
 30
0.0000
 42
1.0000
  0
VERTEX
  8
16
 10
25.7476
 20
19.3374
 30
0.0000
  0
VERTEX
  8
16
 10
23.8426
 20
17.4324
 30
0.0000
 42
1.0000
  0
SEQEND
  8
0
  0
POLYLINE
  8
16
 66
1
 10
0.0000
 20
0.0000
 30
0.0000
 40
0.0000
 41
0.0000
 70
1
  0
VERTEX
  8
16
 10
44.4500
 20
24.5364
 30
0.0000
  0
VERTEX
  8
16
 10
38.1000
 20
24.5364
 30
0.0000
 42
1.0000
  0
VERTEX
  8
16
 10
38.1000
 20
23.7236
 30
0.0000
  0
VERTEX
  8
16
 10
44.4500
 20
23.7236
 30
0.0000
 42
1.0000
  0
SEQEND
  8
0
  0
POLYLINE
  8
16
 66
1
 10
0.0000
 20
0.0000
 30
0.0000
 40
0.0000
 41
0.0000
 70
1
  0
VERTEX
  8
16
 10
6.1356
 20
26.7375
 30
0.0000
  0
VERTEX
  8
16
 10
6.0785
 20
26.8517
 30
0.0000
 42
1.0000
  0
VERTEX
  8
16
 10
5.3515
 20
26.4883
 30
0.0000
  0
VERTEX
  8
16
 10
5.4086
 20
26.3740
 30
0.0000
 42
1.0000
  0
SEQEND
  8
0
  0
POLYLINE
  8
16
 66
1
 10
0.0000
 20
0.0000
 30
0.0000
 40
0.0000
 41
0.0000
 70
1
  0
VERTEX
  8
16
 10
45.8252
 20
4.7208
 30
0.0000
  0
VERTEX
  8
16
 10
46.2062
 20
5.1018
 30
0.0000
 42
1.0000
  0
VERTEX
  8
16
 10
45.4878
 20
5.8202
 30
0.0000
  0
VERTEX
  8
16
 10
45.1068
 20
5.4392
 30
0.0000
 42
1.0000
  0
SEQEND
  8
0
  0
POLYLINE
  8
16
 66
1
 10
0.0000
 20
0.0000
 30
0.0000
 40
0.0000
 41
0.0000
 70
1
  0
VERTEX
  8
16
 10
5.2987
 20
26.3108
 30
0.0000
  0
VERTEX
  8
16
 10
5.4129
 20
26.1965
 30
0.0000
 42
1.0000
  0
VERTEX
  8
16
 10
6.1313
 20
26.9149
 30
0.0000
  0
VERTEX
  8
16
 10
6.0171
 20
27.0292
 30
0.0000
 42
1.0000
  0
SEQEND
  8
0
  0
POLYLINE
  8
16
 66
1
 10
0.0000
 20
0.0000
 30
0.0000
 40
0.0000
 41
0.0000
 70
1
  0
VERTEX
  8
16
 10
69.2440
 20
5.1018
 30
0.0000
  0
VERTEX
  8
16
 10
69.5742
 20
5.4320
 30
0.0000
 42
1.0000
  0
VERTEX
  8
16
 10
68.8558
 20
6.1504
 30
0.0000
  0
VERTEX
  8
16
 10
68.5256
 20
5.8202
 30
0.0000
 42
1.0000
  0
SEQEND
  8
0
  0
POLYLINE
  8
16
 66
1
 10
0.0000
 20
0.0000
 30
0.0000
 40
0.0000
 41
0.0000
 70
1
  0
VERTEX
  8
16
 10
5.7150
 20
27.3050
 30
0.0000
  0
VERTEX
  8
16
 10
2.5400
 20
27.3050
 30
0.0000
 42
1.0000
  0
VERTEX
  8
16
 10
2.5400
 20
26.0350
 30
0.0000
  0
VERTEX
  8
16
 10
5.7150
 20
26.0350
 30
0.0000
 42
1.0000
  0
SEQEND
  8
0
  0
POLYLINE
  8
16
 66
1
 10
0.0000
 20
0.0000
 30
0.0000
 40
0.0000
 41
0.0000
 70
1
  0
VERTEX
  8
16
 10
2.0910
 20
27.1190
 30
0.0000
  0
VERTEX
  8
16
 10
1.2020
 20
26.2300
 30
0.0000
 42
1.0000
  0
VERTEX
  8
16
 10
2.1000
 20
25.3320
 30
0.0000
  0
VERTEX
  8
16
 10
2.9890
 20
26.2210
 30
0.0000
 42
1.0000
  0
SEQEND
  8
0
  0
POLYLINE
  8
16
 66
1
 10
0.0000
 20
0.0000
 30
0.0000
 40
0.0000
 41
0.0000
 70
1
  0
VERTEX
  8
16
 10
1.2020
 20
5.5200
 30
0.0000
  0
VERTEX
  8
16
 10
2.0910
 20
4.6310
 30
0.0000
 42
1.0000
  0
VERTEX
  8
16
 10
2.9890
 20
5.5290
 30
0.0000
  0
VERTEX
  8
16
 10
2.1000
 20
6.4180
 30
0.0000
 42
1.0000
  0
SEQEND
  8
0
  0
POLYLINE
  8
16
 66
1
 10
0.0000
 20
0.0000
 30
0.0000
 40
0.0000
 41
0.0000
 70
1
  0
VERTEX
  8
16
 10
2.5400
 20
4.4450
 30
0.0000
  0
VERTEX
  8
16
 10
13.3350
 20
4.4450
 30
0.0000
 42
1.0000
  0
VERTEX
  8
16
 10
13.3350
 20
5.7150
 30
0.0000
  0
VERTEX
  8
16
 10
2.5400
 20
5.7150
 30
0.0000
 42
1.0000
  0
SEQEND
  8
0
  0
POLYLINE
  8
16
 66
1
 10
0.0000
 20
0.0000
 30
0.0000
 40
0.0000
 41
0.0000
 70
1
  0
VERTEX
  8
16
 10
1.0160
 20
25.7810
 30
0.0000
  0
VERTEX
  8
16
 10
1.0160
 20
5.9690
 30
0.0000
 42
1.0000
  0
VERTEX
  8
16
 10
2.2860
 20
5.9690
 30
0.0000
  0
VERTEX
  8
16
 10
2.2860
 20
25.7810
 30
0.0000
 42
1.0000
  0
SEQEND
  8
0
  0
POLYLINE
  8
16
 66
1
 10
0.0000
 20
0.0000
 30
0.0000
 40
0.0000
 41
0.0000
 70
1
  0
VERTEX
  8
16
 10
45.7078
 20
4.4450
 30
0.0000
  0
VERTEX
  8
16
 10
58.0457
 20
4.4450
 30
0.0000
 42
1.0000
  0
VERTEX
  8
16
 10
58.0457
 20
5.7150
 30
0.0000
  0
VERTEX
  8
16
 10
45.7078
 20
5.7150
 30
0.0000
 42
1.0000
  0
SEQEND
  8
0
  0
POLYLINE
  8
16
 66
1
 10
0.0000
 20
0.0000
 30
0.0000
 40
0.0000
 41
0.0000
 70
1
  0
VERTEX
  8
16
 10
38.7350
 20
4.4450
 30
0.0000
  0
VERTEX
  8
16
 10
45.7078
 20
4.4450
 30
0.0000
 42
1.0000
  0
VERTEX
  8
16
 10
45.7078
 20
5.7150
 30
0.0000
  0
VERTEX
  8
16
 10
38.7350
 20
5.7150
 30
0.0000
 42
1.0000
  0
SEQEND
  8
0
  0
POLYLINE
  8
16
 66
1
 10
0.0000
 20
0.0000
 30
0.0000
 40
0.0000
 41
0.0000
 70
1
  0
VERTEX
  8
16
 10
26.6700
 20
4.4450
 30
0.0000
  0
VERTEX
  8
16
 10
38.7350
 20
4.4450
 30
0.0000
 42
1.0000
  0
VERTEX
  8
16
 10
38.7350
 20
5.7150
 30
0.0000
  0
VERTEX
  8
16
 10
26.6700
 20
5.7150
 30
0.0000
 42
1.0000
  0
SEQEND
  8
0
  0
POLYLINE
  8
16
 66
1
 10
0.0000
 20
0.0000
 30
0.0000
 40
0.0000
 41
0.0000
 70
1
  0
VERTEX
  8
16
 10
20.3927
 20
4.4450
 30
0.0000
  0
VERTEX
  8
16
 10
26.6700
 20
4.4450
 30
0.0000
 42
1.0000
  0
VERTEX
  8
16
 10
26.6700
 20
5.7150
 30
0.0000
  0
VERTEX
  8
16
 10
20.3927
 20
5.7150
 30
0.0000
 42
1.0000
  0
SEQEND
  8
0
  0
POLYLINE
  8
16
 66
1
 10
0.0000
 20
0.0000
 30
0.0000
 40
0.0000
 41
0.0000
 70
1
  0
VERTEX
  8
16
 10
20.3927
 20
5.7150
 30
0.0000
  0
VERTEX
  8
16
 10
13.3350
 20
5.7150
 30
0.0000
 42
1.0000
  0
VERTEX
  8
16
 10
13.3350
 20
4.4450
 30
0.0000
  0
VERTEX
  8
16
 10
20.3927
 20
4.4450
 30
0.0000
 42
1.0000
  0
SEQEND
  8
0
  0
POLYLINE
  8
16
 66
1
 10
0.0000
 20
0.0000
 30
0.0000
 40
0.0000
 41
0.0000
 70
1
  0
VERTEX
  8
16
 10
69.2150
 20
5.7150
 30
0.0000
  0
VERTEX
  8
16
 10
58.0457
 20
5.7150
 30
0.0000
 42
1.0000
  0
VERTEX
  8
16
 10
58.0457
 20
4.4450
 30
0.0000
  0
VERTEX
  8
16
 10
69.2150
 20
4.4450
 30
0.0000
 42
1.0000
  0
SEQEND
  8
0
  0
POLYLINE
  8
16
 66
1
 10
0.0000
 20
0.0000
 30
0.0000
 40
0.0000
 41
0.0000
 70
1
  0
VERTEX
  8
16
 10
57.4040
 20
5.4610
 30
0.0000
  0
VERTEX
  8
16
 10
57.4040
 20
5.0867
 30
0.0000
 42
1.0000
  0
VERTEX
  8
16
 10
58.6740
 20
5.0867
 30
0.0000
  0
VERTEX
  8
16
 10
58.6740
 20
5.4610
 30
0.0000
 42
1.0000
  0
SEQEND
  8
0
  0
POLYLINE
  8
16
 66
1
 10
0.0000
 20
0.0000
 30
0.0000
 40
0.0000
 41
0.0000
 70
1
  0
VERTEX
  8
16
 10
57.5900
 20
4.6377
 30
0.0000
  0
VERTEX
  8
16
 10
57.5967
 20
4.6310
 30
0.0000
 42
1.0000
  0
VERTEX
  8
16
 10
58.4947
 20
5.5290
 30
0.0000
  0
VERTEX
  8
16
 10
58.4880
 20
5.5357
 30
0.0000
 42
1.0000
  0
SEQEND
  8
0
  0
POLYLINE
  8
16
 66
1
 10
0.0000
 20
0.0000
 30
0.0000
 40
0.0000
 41
0.0000
 70
1
  0
VERTEX
  8
16
 10
45.2120
 20
5.4610
 30
0.0000
  0
VERTEX
  8
16
 10
45.2120
 20
5.2192
 30
0.0000
 42
1.0000
  0
VERTEX
  8
16
 10
46.4820
 20
5.2192
 30
0.0000
  0
VERTEX
  8
16
 10
46.4820
 20
5.4610
 30
0.0000
 42
1.0000
  0
SEQEND
  8
0
  0
POLYLINE
  8
16
 66
1
 10
0.0000
 20
0.0000
 30
0.0000
 40
0.0000
 41
0.0000
 70
1
  0
VERTEX
  8
16
 10
45.3980
 20
5.6682
 30
0.0000
  0
VERTEX
  8
16
 10
45.2588
 20
5.5290
 30
0.0000
 42
1.0000
  0
VERTEX
  8
16
 10
46.1568
 20
4.6310
 30
0.0000
  0
VERTEX
  8
16
 10
46.2960
 20
4.7702
 30
0.0000
 42
1.0000
  0
SEQEND
  8
0
  0
POLYLINE
  8
16
 66
1
 10
0.0000
 20
0.0000
 30
0.0000
 40
0.0000
 41
0.0000
 70
1
  0
VERTEX
  8
16
 10
19.6850
 20
7.6200
 30
0.0000
  0
VERTEX
  8
16
 10
19.6850
 20
5.1527
 30
0.0000
 42
1.0000
  0
VERTEX
  8
16
 10
20.9550
 20
5.1527
 30
0.0000
  0
VERTEX
  8
16
 10
20.9550
 20
7.6200
 30
0.0000
 42
1.0000
  0
SEQEND
  8
0
  0
POLYLINE
  8
16
 66
1
 10
0.0000
 20
0.0000
 30
0.0000
 40
0.0000
 41
0.0000
 70
1
  0
VERTEX
  8
16
 10
19.8710
 20
4.7037
 30
0.0000
  0
VERTEX
  8
16
 10
19.9437
 20
4.6310
 30
0.0000
 42
1.0000
  0
VERTEX
  8
16
 10
20.8417
 20
5.5290
 30
0.0000
  0
VERTEX
  8
16
 10
20.7690
 20
5.6017
 30
0.0000
 42
1.0000
  0
SEQEND
  8
0
  0
POLYLINE
  8
16
 66
1
 10
0.0000
 20
0.0000
 30
0.0000
 40
0.0000
 41
0.0000
 70
1
  0
VERTEX
  8
16
 10
69.2150
 20
5.1562
 30
0.0000
  0
VERTEX
  8
16
 10
72.4662
 20
5.1562
 30
0.0000
 42
1.0000
  0
VERTEX
  8
16
 10
72.4662
 20
6.4262
 30
0.0000
  0
VERTEX
  8
16
 10
69.2150
 20
6.4262
 30
0.0000
 42
1.0000
  0
SEQEND
  8
0
  0
POLYLINE
  8
16
 66
1
 10
0.0000
 20
0.0000
 30
0.0000
 40
0.0000
 41
0.0000
 70
1
  0
VERTEX
  8
16
 10
72.8276
 20
5.2691
 30
0.0000
  0
VERTEX
  8
16
 10
74.8904
 20
6.6969
 30
0.0000
 42
1.0000
  0
VERTEX
  8
16
 10
74.1676
 20
7.7411
 30
0.0000
  0
VERTEX
  8
16
 10
72.1048
 20
6.3133
 30
0.0000
 42
1.0000
  0
SEQEND
  8
0
  0
POLYLINE
  8
16
 66
1
 10
0.0000
 20
0.0000
 30
0.0000
 40
0.0000
 41
0.0000
 70
1
  0
VERTEX
  8
16
 10
75.1640
 20
7.2190
 30
0.0000
  0
VERTEX
  8
16
 10
75.1640
 20
30.2460
 30
0.0000
 42
1.0000
  0
VERTEX
  8
16
 10
73.8940
 20
30.2460
 30
0.0000
  0
VERTEX
  8
16
 10
73.8940
 20
7.2190
 30
0.0000
 42
1.0000
  0
SEQEND
  8
0
  0
POLYLINE
  8
16
 66
1
 10
0.0000
 20
0.0000
 30
0.0000
 40
0.0000
 41
0.0000
 70
1
  0
VERTEX
  8
16
 10
74.9780
 20
30.6950
 30
0.0000
  0
VERTEX
  8
16
 10
73.4740
 20
32.1990
 30
0.0000
 42
1.0000
  0
VERTEX
  8
16
 10
72.5760
 20
31.3010
 30
0.0000
  0
VERTEX
  8
16
 10
74.0800
 20
29.7970
 30
0.0000
 42
1.0000
  0
SEQEND
  8
0
  0
POLYLINE
  8
16
 66
1
 10
0.0000
 20
0.0000
 30
0.0000
 40
0.0000
 41
0.0000
 70
1
  0
VERTEX
  8
16
 10
73.0250
 20
32.3850
 30
0.0000
  0
VERTEX
  8
16
 10
69.2912
 20
32.3850
 30
0.0000
 42
1.0000
  0
VERTEX
  8
16
 10
69.2912
 20
31.1150
 30
0.0000
  0
VERTEX
  8
16
 10
73.0250
 20
31.1150
 30
0.0000
 42
1.0000
  0
SEQEND
  8
0
  0
POLYLINE
  8
16
 66
1
 10
0.0000
 20
0.0000
 30
0.0000
 40
0.0000
 41
0.0000
 70
1
  0
VERTEX
  8
16
 10
68.8422
 20
32.1990
 30
0.0000
  0
VERTEX
  8
16
 10
68.7660
 20
32.1228
 30
0.0000
 42
1.0000
  0
VERTEX
  8
16
 10
69.6640
 20
31.2248
 30
0.0000
  0
VERTEX
  8
16
 10
69.7402
 20
31.3010
 30
0.0000
 42
1.0000
  0
SEQEND
  8
0
  0
POLYLINE
  8
16
 66
1
 10
0.0000
 20
0.0000
 30
0.0000
 40
0.0000
 41
0.0000
 70
1
  0
VERTEX
  8
16
 10
68.5800
 20
5.7912
 30
0.0000
  0
VERTEX
  8
16
 10
68.5800
 20
5.0800
 30
0.0000
 42
1.0000
  0
VERTEX
  8
16
 10
69.8500
 20
5.0800
 30
0.0000
  0
VERTEX
  8
16
 10
69.8500
 20
5.7912
 30
0.0000
 42
1.0000
  0
SEQEND
  8
0
  0
POLYLINE
  8
16
 66
1
 10
0.0000
 20
0.0000
 30
0.0000
 40
0.0000
 41
0.0000
 70
1
  0
VERTEX
  8
16
 10
69.2150
 20
32.3088
 30
0.0000
  0
VERTEX
  8
16
 10
60.8838
 20
32.3088
 30
0.0000
 42
1.0000
  0
VERTEX
  8
16
 10
60.8838
 20
31.0388
 30
0.0000
  0
VERTEX
  8
16
 10
69.2150
 20
31.0388
 30
0.0000
 42
1.0000
  0
SEQEND
  8
0
  0
POLYLINE
  8
16
 66
1
 10
0.0000
 20
0.0000
 30
0.0000
 40
0.0000
 41
0.0000
 70
1
  0
VERTEX
  8
16
 10
58.4200
 20
30.4800
 30
0.0000
  0
VERTEX
  8
16
 10
58.4200
 20
28.5750
 30
0.0000
 42
1.0000
  0
VERTEX
  8
16
 10
59.6900
 20
28.5750
 30
0.0000
  0
VERTEX
  8
16
 10
59.6900
 20
30.4800
 30
0.0000
 42
1.0000
  0
SEQEND
  8
0
  0
POLYLINE
  8
16
 66
1
 10
0.0000
 20
0.0000
 30
0.0000
 40
0.0000
 41
0.0000
 70
1
  0
VERTEX
  8
16
 10
60.5367
 20
32.2055
 30
0.0000
  0
VERTEX
  8
16
 10
58.7079
 20
31.0117
 30
0.0000
 42
1.0000
  0
VERTEX
  8
16
 10
59.4021
 20
29.9483
 30
0.0000
  0
VERTEX
  8
16
 10
61.2309
 20
31.1421
 30
0.0000
 42
1.0000
  0
SEQEND
  8
0
  0
ENDSEC
  0
EOF
